<?xml version="1.0" encoding="UTF-8" standalone="no"?><!-- Generator: Gravit.io --><svg xmlns="http://www.w3.org/2000/svg" xmlns:xlink="http://www.w3.org/1999/xlink" style="isolation:isolate" viewBox="0 0 800 1280" width="220px" height="400px"><defs><clipPath id="_clipPath_ORwA98iyBGUpF53GAcJC0jtIrbUhEgVY"><rect width="800" height="1280"/></clipPath></defs><g clip-path="url(#_clipPath_ORwA98iyBGUpF53GAcJC0jtIrbUhEgVY)"><g><path d=" M 145.046 1032 C 143.205 1014.649 169.139 992 200.046 992 C 230.953 992 261.046 1005.237 261.046 1016 C 261.046 1026.762 230.953 1046 200.046 1046 C 169.139 1046 146.562 1046.281 145.046 1032 Z " fill="rgb(103,140,46)" vector-effect="non-scaling-stroke" stroke-width="5" stroke="rgb(32,38,23)" stroke-linejoin="miter" stroke-linecap="square" stroke-miterlimit="3"/><path d=" M 150 1033.263 C 153 1024.156 181.194 1028.46 205 1024 C 232.304 1018.885 263.122 1007.129 258 1018 C 252.47 1029.737 226.688 1040.187 215 1042 C 185.205 1046.621 146.461 1044.005 150 1033.263 Z " fill="rgb(84,113,41)"/></g><g><path d=" M 124.935 665.35 C 137.178 634.862 163.513 608.339 171.964 611.732 C 180.415 615.126 174.178 642.634 161.935 673.122 C 149.693 703.611 136.051 725.609 127.6 722.216 C 119.149 718.822 112.693 695.839 124.935 665.35 Z " fill="rgb(103,140,46)" vector-effect="non-scaling-stroke" stroke-width="5" stroke="rgb(32,38,23)" stroke-linejoin="miter" stroke-linecap="square" stroke-miterlimit="3"/><path d=" M 146 678.882 C 155.048 659.656 168.256 615.767 173 618 C 175.476 619.165 170.308 648.484 159 675 C 153.299 688.368 146.718 701.543 141 710 C 136.328 716.909 131.02 720.48 130 720 C 125.256 717.767 136.952 698.108 146 678.882 Z " fill="rgb(84,113,41)"/></g><g><path d=" M 609.798 805.116 C 611.25 813.93 612 822.921 612 832.052 C 612 944.125 499.083 1035.115 360 1035.115 C 220.917 1035.115 108 944.125 108 832.052 L 108 832.052 C 108 807.139 113.58 783.267 123.795 761.208 C 130.118 742.943 164.934 656.841 187 541.606 C 195.926 494.991 191.498 481.135 210.531 424.991 C 223.714 369.217 287.007 326.885 363 326.885 C 425.814 326.885 479.952 355.808 504.301 397.332 C 549.279 457.815 561.845 489.832 573 545.606 C 583.998 600.596 594.19 673.89 603 742.606 Q 607.871 780.602 609.798 805.116 Z  M 502 396.606 M 506 404.606" fill-rule="evenodd" fill="rgb(163,166,83)" vector-effect="non-scaling-stroke" stroke-width="5" stroke="rgb(32,38,23)" stroke-linejoin="miter" stroke-linecap="square" stroke-miterlimit="3"/></g><g><path d=" M 591.02 793.032 C 592.363 801.198 593.056 809.53 593.056 817.992 C 593.056 921.845 488.627 1006.161 360 1006.161 C 231.373 1006.161 126.944 921.845 126.944 817.992 L 126.944 817.992 L 126.944 817.992 C 126.944 794.905 132.104 772.784 141.551 752.344 L 141.551 752.344 C 147.399 735.418 179.597 655.631 200.005 548.847 C 208.253 505.687 204.172 492.833 221.723 440.916 C 233.858 389.169 292.434 349.875 362.774 349.875 C 420.867 349.875 470.935 376.676 493.454 415.154 C 535.05 471.201 546.672 500.87 556.988 552.554 C 567.159 603.511 576.585 671.429 584.733 735.105 Q 589.238 770.315 591.02 793.032 Z  M 607.816 804.375 C 609.256 813.136 610 822.073 610 831.15 C 610 942.554 497.979 1033 360 1033 C 222.021 1033 110 942.554 110 831.15 L 110 831.15 C 110 806.385 115.536 782.656 125.669 760.729 C 131.943 742.573 166.482 656.985 188.373 542.438 C 197.228 496.101 192.835 482.329 211.718 426.52 C 224.796 371.079 287.587 329 362.976 329 C 425.292 329 479 357.75 503.156 399.026 C 547.777 459.147 560.243 490.973 571.31 546.414 C 582.22 601.076 592.332 673.932 601.071 742.238 Q 605.904 780.008 607.816 804.375 L 607.816 804.375 L 607.816 804.375 L 607.816 804.375 Z  M 500.873 398.304 M 504.841 406.256 M 491.325 414.481 M 495.025 421.895" fill-rule="evenodd" fill="rgb(134,136,81)"/></g><g><g><path d=" M 605.798 804.231 C 607.25 813.044 608 822.035 608 831.167 C 608 939.182 503.112 1027.612 371 1033.87 C 375.962 1034.11 380.964 1034.229 386 1034.229 C 525.083 1034.229 638 943.24 638 831.167 C 638 822.035 637.25 813.044 635.798 804.231 Q 633.871 779.717 629 741.72 C 620.19 673.004 609.998 599.711 599 544.72 C 587.845 488.946 575.279 456.929 530.301 396.446 C 505.952 354.923 451.814 326 389 326 C 383.925 326 378.906 326.189 373.962 326.575 C 430.181 330.728 477.666 358.123 500.094 396.171 C 545.242 456.834 557.829 488.863 569 544.72 C 579.998 599.711 590.19 673.004 599 741.72 Q 603.871 779.717 605.798 804.231 Z  M 528 395.72 M 532 403.72 M 498 395.72 M 502 403.72" fill-rule="evenodd" fill="rgb(103,140,46)" vector-effect="non-scaling-stroke" stroke-width="4" stroke="rgb(32,38,23)" stroke-linejoin="miter" stroke-linecap="square" stroke-miterlimit="3"/></g><g><path d=" M 619.236 804.231 C 620.694 813.044 621.446 822.035 621.446 831.167 C 621.446 941.353 511.878 1031.159 375.5 1034.141 C 377.832 1034.203 380.176 1034.229 382.527 1034.229 C 522.147 1034.229 635.5 943.24 635.5 831.167 C 635.5 822.035 634.748 813.044 633.29 804.231 Q 631.355 779.717 626.465 741.72 C 617.621 673.004 607.39 599.711 596.349 544.72 C 585.152 488.946 572.537 456.929 527.385 396.446 C 502.942 354.923 448.595 326 385.539 326 C 383.167 326 380.808 326.041 378.469 326.142 C 438.407 328.169 489.573 356.345 513.146 396.2 C 558.449 456.844 571.083 488.872 582.295 544.72 C 593.336 599.711 603.567 673.004 612.411 741.72 Q 617.301 779.717 619.236 804.231 Z  M 525.075 395.72 M 529.091 403.72 M 511.021 395.72 M 515.037 403.72" fill-rule="evenodd" fill="rgb(84,113,41)"/></g></g><g><g><path d=" M 342.52 474.839 C 342.46 474.787 342.401 474.731 342.345 474.664 C 342.321 474.648 342.299 474.624 342.281 474.59 C 341.78 474.059 341.357 473.287 341.004 472.301 C 338.192 464.434 338.769 462.112 340.129 460.301 C 341.556 458.401 344.676 456.608 346.129 456.301 C 347.645 455.981 352.535 455.755 355.129 458.301 C 357.723 460.848 359.672 463.928 360.004 464.39 C 360.848 465.561 360.338 466.467 360.004 466.39 C 358.864 466.124 357.801 463.546 353.129 461.301 C 348.642 459.146 347.419 459.632 346.129 460.301 C 344.973 460.901 344.156 462.219 345.129 464.301 C 346.203 466.6 347.369 468.998 347.811 470.311 C 348.249 470.889 348.504 471.61 348.504 472.39 C 348.504 474.321 346.936 475.89 345.004 475.89 C 344.03 475.89 343.147 475.49 342.52 474.839 Z " fill-rule="evenodd" fill="rgb(0,0,0)" vector-effect="non-scaling-stroke" stroke-width="1" stroke="rgb(0,0,0)" stroke-linejoin="miter" stroke-linecap="square" stroke-miterlimit="3"/></g><circle vector-effect="non-scaling-stroke" cx="301" cy="433" r="5.5" fill="rgb(0,0,0)"/><circle vector-effect="non-scaling-stroke" cx="406.5" cy="427.5" r="5.5" fill="rgb(0,0,0)"/><path d=" M 257.799 427.442 L 292.32 424 L 327.551 422.408 C 328.948 422.345 330.002 421.176 329.903 419.8 L 329.903 419.8 C 329.803 418.424 328.588 417.358 327.191 417.421 L 292.32 419 L 257.439 422.457 C 256.047 422.595 254.998 423.824 255.097 425.2 L 255.097 425.2 C 255.197 426.576 256.407 427.581 257.799 427.442 Z " fill="rgb(0,0,0)"/><path d=" M 366.299 419.006 L 400.82 415.563 L 436.051 413.971 C 437.448 413.908 438.502 412.739 438.403 411.363 L 438.403 411.363 C 438.303 409.987 437.088 408.921 435.691 408.984 L 400.82 410.563 L 365.939 414.02 C 364.547 414.158 363.498 415.387 363.597 416.764 L 363.597 416.764 C 363.697 418.14 364.907 419.144 366.299 419.006 Z " fill="rgb(0,0,0)"/></g><g><path d=" M 225.554 836.148 C 240.411 759.213 325.251 673.298 389.582 686.318 C 501.593 708.987 493.601 809.506 478.744 886.441 C 463.887 963.376 386.393 975.373 321.949 962.928 C 257.505 950.483 210.697 913.083 225.554 836.148 Z " fill="rgb(147,91,58)" vector-effect="non-scaling-stroke" stroke-width="5" stroke="rgb(32,38,23)" stroke-linejoin="miter" stroke-linecap="square" stroke-miterlimit="3"/><path d=" M 262 770 C 299.239 709.642 376.129 696.378 382 700 C 387.871 703.622 329.239 728.642 292 789 C 254.761 849.358 249.871 890.622 244 887 C 238.129 883.378 224.761 830.358 262 770 Z " fill="rgb(185,134,104)"/><path d=" M 456.927 917.12 C 411.675 986.31 287.04 949.851 278.927 941 C 273.427 935 378.531 951.103 413.927 900.12 C 468.427 821.62 452.422 736.799 460.927 736.12 C 476.387 734.887 494.137 860.227 456.927 917.12 Z " fill="rgb(102,64,42)"/><path d=" M 299.001 772.324 C 308.579 755.548 350.023 723.195 352 724.324 C 353.977 725.453 313.579 757.92 304.001 774.696 C 294.423 791.471 274.53 829.669 273.001 829 C 269.001 827.25 289.423 789.099 299.001 772.324 Z " fill="rgb(255,255,255)"/></g><g><path d=" M 589.103 631.687 C 576.225 581.364 607.926 595.287 634.625 589.682 C 661.478 584.044 693.752 576.545 699.138 600.68 C 705.504 629.207 668.211 629.527 641.502 635.091 C 614.793 640.655 597.297 663.709 589.103 631.687 Z " fill="rgb(103,140,46)" vector-effect="non-scaling-stroke" stroke-width="5" stroke="rgb(32,38,23)" stroke-linejoin="miter" stroke-linecap="square" stroke-miterlimit="3"/><path d=" M 635 634 C 625.029 638.432 617.875 640.75 608 645 C 599 648.625 595.5 644.25 591 631 C 588.661 624.112 611.666 622.035 639 614 C 666.334 605.965 696.937 599.063 697 607 C 697.072 616.147 695.373 621.459 668 628 C 653.875 631.375 649.25 631.125 635 634 Z " fill="rgb(84,113,41)"/><path d=" M 661.618 604.723 C 659.118 589.713 668.441 583.713 683.618 583.713 C 698.796 583.713 720.118 595.213 716.618 604.723 C 711.979 617.33 706.39 626.754 691.618 623.713 C 674.618 620.213 663.8 617.826 661.618 604.723 Z " fill="rgb(103,140,46)" vector-effect="non-scaling-stroke" stroke-width="5" stroke="rgb(32,38,23)" stroke-linejoin="miter" stroke-linecap="square" stroke-miterlimit="3"/><path d=" M 670 614 C 665.475 610.726 663.818 604.998 664 602 C 664.435 594.831 677.451 606.69 687 610 C 691.688 611.625 695.25 613.313 701 609 C 706.687 607.875 701.648 593.998 704 593 C 707.248 591.622 714 600.069 714 603 C 714 610.175 707.738 621.518 697 622 C 690.13 622.308 677.096 619.134 670 614 Z " fill="rgb(84,113,41)"/></g><g><path d=" M 486.5 1030 C 486.5 1013.994 518.489 991 550.5 991 C 582.511 991 613.5 1013.994 613.5 1030 C 613.5 1046.006 587.511 1047 555.5 1047 C 523.489 1047 486.5 1046.006 486.5 1030 Z " fill="rgb(103,140,46)" vector-effect="non-scaling-stroke" stroke-width="5" stroke="rgb(32,38,23)" stroke-linejoin="miter" stroke-linecap="square" stroke-miterlimit="3"/><path d=" M 489.015 1032.906 C 487.729 1025.562 521.293 1029.149 547.015 1024.906 C 578.084 1019.781 609.727 1023.445 610.015 1031.906 C 610.132 1035.353 608.962 1041.302 586.015 1043.906 C 576.816 1044.95 565.011 1045.151 547.015 1044.906 C 501.077 1044.281 490.038 1038.749 489.015 1032.906 Z " fill="rgb(84,113,41)"/></g></g></svg>