<?xml version="1.0" encoding="UTF-8" standalone="no"?><!-- Generator: Gravit.io --><svg xmlns="http://www.w3.org/2000/svg" xmlns:xlink="http://www.w3.org/1999/xlink" style="isolation:isolate" viewBox="0 0 954 670" width="954pt" height="670pt"><defs><clipPath id="_clipPath_3ccuz8fcafI0fXA5NotUafHknWa9aR7e"><rect width="954" height="670"/></clipPath></defs><g clip-path="url(#_clipPath_3ccuz8fcafI0fXA5NotUafHknWa9aR7e)"><linearGradient id="_lgradient_0" x1="0.5393009657786493" y1="0.7221918370091273" x2="0.5393009657786492" y2="0"><stop offset="0%" style="stop-color:#F2BDDA"/><stop offset="100%" style="stop-color:#9CCED9"/></linearGradient><rect width="954" height="670" style="fill:url(#_lgradient_0);"/><g style="opacity:0.5;" filter="url(#djse6mcJdB0WbsDHdq6A7Oc9oW93M3r7)"><rect x="496.752" y="428.063" width="455" height="95" transform="matrix(1,0,0,1,0,0)" fill="rgb(255,255,255)"/><rect x="823" y="347.187" width="131" height="95" transform="matrix(1,0,0,1,0,0)" fill="rgb(255,255,255)"/><rect x="-1.248" y="475.563" width="954" height="138" transform="matrix(1,0,0,1,0,0)" fill="rgb(255,255,255)"/><circle vector-effect="non-scaling-stroke" cx="867.5017956279731" cy="357.81249999999983" r="37.5" fill="rgb(255,255,255)"/><circle vector-effect="non-scaling-stroke" cx="914.2517956279731" cy="357.8124999999999" r="37.5" fill="rgb(255,255,255)"/><circle vector-effect="non-scaling-stroke" cx="951.7517956279733" cy="316.99999999999994" r="37.5" fill="rgb(255,255,255)"/><circle vector-effect="non-scaling-stroke" cx="830.0017956279733" cy="357.18749999999966" r="37.5" fill="rgb(255,255,255)"/><circle vector-effect="non-scaling-stroke" cx="691.5017956279733" cy="428.68749999999994" r="37.5" fill="rgb(255,255,255)"/><circle vector-effect="non-scaling-stroke" cx="522.7517956279734" cy="428.68749999999994" r="37.5" fill="rgb(255,255,255)"/><circle vector-effect="non-scaling-stroke" cx="609.7517956279734" cy="416.68749999999994" r="58.875000000000114" fill="rgb(255,255,255)"/><circle vector-effect="non-scaling-stroke" cx="760.7517956279734" cy="405.68749999999994" r="69.25" fill="rgb(255,255,255)"/><circle vector-effect="non-scaling-stroke" cx="485.25179562797325" cy="466.18749999999983" r="36.49999999999997" fill="rgb(255,255,255)"/><circle vector-effect="non-scaling-stroke" cx="434.25179562797325" cy="450.6874999999998" r="36.5" fill="rgb(255,255,255)"/><circle vector-effect="non-scaling-stroke" cx="307.2517956279734" cy="475.5625000000002" r="36.5" fill="rgb(255,255,255)"/><circle vector-effect="non-scaling-stroke" cx="257.75179562797354" cy="498.6875" r="36.5" fill="rgb(255,255,255)"/><circle vector-effect="non-scaling-stroke" cx="214.25179562797337" cy="462.18749999999994" r="36.5" fill="rgb(255,255,255)"/><circle vector-effect="non-scaling-stroke" cx="177.25179562797334" cy="409.6874999999997" r="52.5" fill="rgb(255,255,255)"/><circle vector-effect="non-scaling-stroke" cx="140.75179562797337" cy="475.56250000000034" r="75.51369863013701" fill="rgb(255,255,255)"/><circle vector-effect="non-scaling-stroke" cx="50.75179562797336" cy="462.1874999999996" r="38.80779696003006" fill="rgb(255,255,255)"/><circle vector-effect="non-scaling-stroke" cx="11.94399866794329" cy="374.68749999999966" r="38.80779696003007" fill="rgb(255,255,255)"/><ellipse vector-effect="non-scaling-stroke" cx="-8.54791771235573" cy="330.4038984800151" rx="26.067676207704412" ry="23.403898480015016" fill="rgb(255,255,255)"/><circle vector-effect="non-scaling-stroke" cx="26.430300037806298" cy="425.6874999999999" r="38.80779696003007" fill="rgb(255,255,255)"/><circle vector-effect="non-scaling-stroke" cx="65.23809699783635" cy="416.6874999999999" r="38.80779696003006" fill="rgb(255,255,255)"/><circle vector-effect="non-scaling-stroke" cx="11.943998667943225" cy="471.95192891311757" r="19.943998667943227" fill="rgb(255,255,255)"/><circle vector-effect="non-scaling-stroke" cx="362.75179562797337" cy="443.18749999999994" r="55.50000000000006" fill="rgb(255,255,255)"/></g><defs><filter id="djse6mcJdB0WbsDHdq6A7Oc9oW93M3r7" x="-200%" y="-200%" width="400%" height="400%" filterUnits="objectBoundingBox" color-interpolation-filters="sRGB"><feGaussianBlur xmlns="http://www.w3.org/2000/svg" in="SourceGraphic" stdDeviation="4.293609062839028"/><feOffset xmlns="http://www.w3.org/2000/svg" dx="10" dy="0" result="pf_100_offsetBlur"/><feFlood xmlns="http://www.w3.org/2000/svg" flood-color="#43457F" flood-opacity="0.7"/><feComposite xmlns="http://www.w3.org/2000/svg" in2="pf_100_offsetBlur" operator="in" result="pf_100_dropShadow"/><feBlend xmlns="http://www.w3.org/2000/svg" in="SourceGraphic" in2="pf_100_dropShadow" mode="normal"/></filter></defs><g style="opacity:0.7;" filter="url(#kjdd19ko6JM8UqFiSwICwLLWAI9DMflu)"><rect x="690" y="423" width="266" height="246" transform="matrix(1,0,0,1,0,0)" fill="rgb(255,255,255)"/><ellipse vector-effect="non-scaling-stroke" cx="665.8749999999998" cy="601" rx="58" ry="59.793814432989734" fill="rgb(255,255,255)"/><circle vector-effect="non-scaling-stroke" cx="633.5" cy="521.9375" r="70.5" fill="rgb(255,255,255)"/><circle vector-effect="non-scaling-stroke" cx="704" cy="462" r="44.125" fill="rgb(255,255,255)"/><circle vector-effect="non-scaling-stroke" cx="864.9999999999999" cy="408" r="33.5625" fill="rgb(255,255,255)"/><circle vector-effect="non-scaling-stroke" cx="802.9999999999999" cy="440.12499999999994" r="44.125" fill="rgb(255,255,255)"/><circle vector-effect="non-scaling-stroke" cx="925.3611505681816" cy="364" r="37.78125" fill="rgb(255,255,255)"/><circle vector-effect="non-scaling-stroke" cx="904.6718749999999" cy="393.109375" r="31.671875" fill="rgb(255,255,255)"/><rect x="889.285" y="381" width="72.153" height="70.438" transform="matrix(1,0,0,1,0,0)" fill="rgb(255,255,255)"/><circle vector-effect="non-scaling-stroke" cx="588" cy="586.5" r="33.5" fill="rgb(255,255,255)"/><circle vector-effect="non-scaling-stroke" cx="741" cy="423" r="26.5" fill="rgb(255,255,255)"/></g><defs><filter id="kjdd19ko6JM8UqFiSwICwLLWAI9DMflu" x="-200%" y="-200%" width="400%" height="400%" filterUnits="objectBoundingBox" color-interpolation-filters="sRGB"><feGaussianBlur xmlns="http://www.w3.org/2000/svg" in="SourceGraphic" stdDeviation="4.293609062839028"/><feOffset xmlns="http://www.w3.org/2000/svg" dx="10" dy="0" result="pf_100_offsetBlur"/><feFlood xmlns="http://www.w3.org/2000/svg" flood-color="#43457F" flood-opacity="0.7"/><feComposite xmlns="http://www.w3.org/2000/svg" in2="pf_100_offsetBlur" operator="in" result="pf_100_dropShadow"/><feBlend xmlns="http://www.w3.org/2000/svg" in="SourceGraphic" in2="pf_100_dropShadow" mode="normal"/></filter></defs><g style="opacity:0.75;" filter="url(#hXLIzEgeeHBoptuf4gSFQpfTxBKMgnTi)"><circle vector-effect="non-scaling-stroke" cx="76.29700951443563" cy="443.24999999999994" r="37.5" fill="rgb(255,255,255)"/><circle vector-effect="non-scaling-stroke" cx="128.42200951443564" cy="459" r="37.5" fill="rgb(255,255,255)"/><circle vector-effect="non-scaling-stroke" cx="53.422009514435665" cy="475" r="54.80916666666667" fill="rgb(255,255,255)"/><circle vector-effect="non-scaling-stroke" cx="53.42200951443564" cy="428.9999999999999" r="37.5" fill="rgb(255,255,255)"/><circle vector-effect="non-scaling-stroke" cx="175.42200951443564" cy="474.99999999999994" r="31.75" fill="rgb(255,255,255)"/><circle vector-effect="non-scaling-stroke" cx="128.42200951443567" cy="518" r="52.12500000000003" fill="rgb(255,255,255)"/><circle vector-effect="non-scaling-stroke" cx="207.17200951443567" cy="529.8091666666667" r="51.2876476377953" fill="rgb(255,255,255)"/><circle vector-effect="non-scaling-stroke" cx="6.422009514435672" cy="421.5" r="26.881666666666675" fill="rgb(255,255,255)"/></g><defs><filter id="hXLIzEgeeHBoptuf4gSFQpfTxBKMgnTi" x="-200%" y="-200%" width="400%" height="400%" filterUnits="objectBoundingBox" color-interpolation-filters="sRGB"><feGaussianBlur xmlns="http://www.w3.org/2000/svg" in="SourceGraphic" stdDeviation="4.293609062839028"/><feOffset xmlns="http://www.w3.org/2000/svg" dx="10" dy="0" result="pf_100_offsetBlur"/><feFlood xmlns="http://www.w3.org/2000/svg" flood-color="#43457F" flood-opacity="0.7"/><feComposite xmlns="http://www.w3.org/2000/svg" in2="pf_100_offsetBlur" operator="in" result="pf_100_dropShadow"/><feBlend xmlns="http://www.w3.org/2000/svg" in="SourceGraphic" in2="pf_100_dropShadow" mode="normal"/></filter></defs><g filter="url(#WOVGujO1ejZzNJYSBmkaJrm3VxgKkZmz)"><rect x="0" y="567.32" width="954" height="102.68" transform="matrix(1,0,0,1,0,0)" fill="rgb(255,255,255)"/><rect x="1" y="543.375" width="455" height="95" transform="matrix(1,0,0,1,0,0)" fill="rgb(255,255,255)"/><circle vector-effect="non-scaling-stroke" cx="35.999999999999986" cy="544.0000000000001" r="37.5" fill="rgb(255,255,255)"/><circle vector-effect="non-scaling-stroke" cx="-1.5000000000000142" cy="502.19220303996985" r="37.5" fill="rgb(255,255,255)"/><circle vector-effect="non-scaling-stroke" cx="105" cy="521" r="37.5" fill="rgb(255,255,255)"/><circle vector-effect="non-scaling-stroke" cx="261.25" cy="544.0000000000001" r="37.5" fill="rgb(255,255,255)"/><circle vector-effect="non-scaling-stroke" cx="429.99999999999994" cy="544.0000000000001" r="37.5" fill="rgb(255,255,255)"/><circle vector-effect="non-scaling-stroke" cx="343" cy="532" r="58.875000000000114" fill="rgb(255,255,255)"/><circle vector-effect="non-scaling-stroke" cx="192" cy="521" r="69.25" fill="rgb(255,255,255)"/><circle vector-effect="non-scaling-stroke" cx="467.49999999999994" cy="581.5" r="36.5" fill="rgb(255,255,255)"/><circle vector-effect="non-scaling-stroke" cx="518.5" cy="565.9999999999999" r="36.5" fill="rgb(255,255,255)"/><circle vector-effect="non-scaling-stroke" cx="645.4999999999999" cy="567.3204302451745" r="36.5" fill="rgb(255,255,255)"/><circle vector-effect="non-scaling-stroke" cx="690.9999999999999" cy="577.5" r="36.5" fill="rgb(255,255,255)"/><circle vector-effect="non-scaling-stroke" cx="727.4999999999999" cy="538.69220303997" r="36.5" fill="rgb(255,255,255)"/><circle vector-effect="non-scaling-stroke" cx="775.5" cy="525" r="52.5" fill="rgb(255,255,255)"/><circle vector-effect="non-scaling-stroke" cx="812" cy="590.8750000000003" r="75.51369863013701" fill="rgb(255,255,255)"/><circle vector-effect="non-scaling-stroke" cx="902.0000000000001" cy="577.5" r="38.80779696003003" fill="rgb(255,255,255)"/><circle vector-effect="non-scaling-stroke" cx="940.8077969600301" cy="577.5" r="19.94399866794322" fill="rgb(255,255,255)"/><circle vector-effect="non-scaling-stroke" cx="590" cy="558.5" r="55.5" fill="rgb(255,255,255)"/></g><defs><filter id="WOVGujO1ejZzNJYSBmkaJrm3VxgKkZmz" x="-200%" y="-200%" width="400%" height="400%" filterUnits="objectBoundingBox" color-interpolation-filters="sRGB"><feGaussianBlur xmlns="http://www.w3.org/2000/svg" in="SourceGraphic" stdDeviation="4.293609062839028"/><feOffset xmlns="http://www.w3.org/2000/svg" dx="10" dy="0" result="pf_100_offsetBlur"/><feFlood xmlns="http://www.w3.org/2000/svg" flood-color="#43457F" flood-opacity="0.7"/><feComposite xmlns="http://www.w3.org/2000/svg" in2="pf_100_offsetBlur" operator="in" result="pf_100_dropShadow"/><feBlend xmlns="http://www.w3.org/2000/svg" in="SourceGraphic" in2="pf_100_dropShadow" mode="normal"/></filter></defs><g filter="url(#HGlqH6g4tQ7tc3JfeFCuUFnoZ9c3Y1Xw)"><ellipse vector-effect="non-scaling-stroke" cx="728.5939423076921" cy="218.83333333333331" rx="27.34384615384613" ry="28.333333333333343" fill="rgb(255,255,255)"/><ellipse vector-effect="non-scaling-stroke" cx="755.9377884615382" cy="203.8333333333333" rx="27.34384615384613" ry="28.333333333333343" fill="rgb(255,255,255)"/><ellipse vector-effect="non-scaling-stroke" cx="783.2816346153845" cy="218.83333333333331" rx="27.34384615384613" ry="28.333333333333343" fill="rgb(255,255,255)"/><ellipse vector-effect="non-scaling-stroke" cx="820.8124038461536" cy="232.1666666666667" rx="27.34384615384613" ry="28.333333333333343" fill="rgb(255,255,255)"/><ellipse vector-effect="non-scaling-stroke" cx="783.2816346153845" cy="247.1666666666667" rx="27.34384615384613" ry="28.333333333333343" fill="rgb(255,255,255)"/><ellipse vector-effect="non-scaling-stroke" cx="701.2500961538458" cy="232.1666666666667" rx="27.34384615384613" ry="28.333333333333343" fill="rgb(255,255,255)"/><ellipse vector-effect="non-scaling-stroke" cx="755.9377884615382" cy="247.1666666666667" rx="27.34384615384613" ry="28.333333333333343" fill="rgb(255,255,255)"/><ellipse vector-effect="non-scaling-stroke" cx="729.66625" cy="247.16666666666669" rx="20.909999999999968" ry="21.666666666666686" fill="rgb(255,255,255)"/></g><defs><filter id="HGlqH6g4tQ7tc3JfeFCuUFnoZ9c3Y1Xw" x="-200%" y="-200%" width="400%" height="400%" filterUnits="objectBoundingBox" color-interpolation-filters="sRGB"><feGaussianBlur xmlns="http://www.w3.org/2000/svg" in="SourceGraphic" stdDeviation="4.293609062839028"/><feOffset xmlns="http://www.w3.org/2000/svg" dx="10" dy="0" result="pf_100_offsetBlur"/><feFlood xmlns="http://www.w3.org/2000/svg" flood-color="#43457F" flood-opacity="0.7"/><feComposite xmlns="http://www.w3.org/2000/svg" in2="pf_100_offsetBlur" operator="in" result="pf_100_dropShadow"/><feBlend xmlns="http://www.w3.org/2000/svg" in="SourceGraphic" in2="pf_100_dropShadow" mode="normal"/></filter></defs><g style="opacity:0.54;" filter="url(#aFMXDSf81amUQcdC7s56oMScP4Jps9Lo)"><ellipse vector-effect="non-scaling-stroke" cx="321.56269230769243" cy="197.33333333333326" rx="27.34384615384613" ry="28.333333333333314" fill="rgb(255,255,255)"/><ellipse vector-effect="non-scaling-stroke" cx="348.9065384615385" cy="182.33333333333326" rx="27.34384615384613" ry="28.333333333333314" fill="rgb(255,255,255)"/><ellipse vector-effect="non-scaling-stroke" cx="376.25038461538486" cy="197.33333333333326" rx="27.34384615384613" ry="28.333333333333314" fill="rgb(255,255,255)"/><ellipse vector-effect="non-scaling-stroke" cx="413.7811538461539" cy="210.66666666666674" rx="27.34384615384613" ry="28.333333333333314" fill="rgb(255,255,255)"/><ellipse vector-effect="non-scaling-stroke" cx="376.25038461538486" cy="225.66666666666674" rx="27.34384615384613" ry="28.333333333333314" fill="rgb(255,255,255)"/><ellipse vector-effect="non-scaling-stroke" cx="294.21884615384613" cy="210.66666666666674" rx="27.34384615384613" ry="28.333333333333314" fill="rgb(255,255,255)"/><ellipse vector-effect="non-scaling-stroke" cx="348.9065384615385" cy="225.66666666666674" rx="27.34384615384613" ry="28.333333333333314" fill="rgb(255,255,255)"/><ellipse vector-effect="non-scaling-stroke" cx="322.6350000000002" cy="225.66666666666669" rx="20.910000000000025" ry="21.666666666666686" fill="rgb(255,255,255)"/></g><defs><filter id="aFMXDSf81amUQcdC7s56oMScP4Jps9Lo" x="-200%" y="-200%" width="400%" height="400%" filterUnits="objectBoundingBox" color-interpolation-filters="sRGB"><feGaussianBlur xmlns="http://www.w3.org/2000/svg" in="SourceGraphic" stdDeviation="4.293609062839028"/><feOffset xmlns="http://www.w3.org/2000/svg" dx="10" dy="0" result="pf_100_offsetBlur"/><feFlood xmlns="http://www.w3.org/2000/svg" flood-color="#43457F" flood-opacity="0.7"/><feComposite xmlns="http://www.w3.org/2000/svg" in2="pf_100_offsetBlur" operator="in" result="pf_100_dropShadow"/><feBlend xmlns="http://www.w3.org/2000/svg" in="SourceGraphic" in2="pf_100_dropShadow" mode="normal"/></filter></defs><g style="opacity:0.44;" filter="url(#zevhRsDXkZiCENBc04e4YmXIrCoAqDZD)"><ellipse vector-effect="non-scaling-stroke" cx="592.4044230769229" cy="145.8574844571976" rx="20.733461538461597" ry="21.48373983739839" fill="rgb(255,255,255)"/><ellipse vector-effect="non-scaling-stroke" cx="613.1378846153843" cy="134.4837398373984" rx="20.733461538461597" ry="21.48373983739839" fill="rgb(255,255,255)"/><ellipse vector-effect="non-scaling-stroke" cx="633.8713461538462" cy="145.8574844571976" rx="20.733461538461597" ry="21.48373983739839" fill="rgb(255,255,255)"/><ellipse vector-effect="non-scaling-stroke" cx="662.3290384615384" cy="155.96747967479686" rx="20.733461538461597" ry="21.48373983739839" fill="rgb(255,255,255)"/><ellipse vector-effect="non-scaling-stroke" cx="633.8713461538462" cy="167.341224294596" rx="20.733461538461597" ry="21.48373983739839" fill="rgb(255,255,255)"/><ellipse vector-effect="non-scaling-stroke" cx="571.6709615384614" cy="155.96747967479686" rx="20.733461538461597" ry="21.48373983739839" fill="rgb(255,255,255)"/><ellipse vector-effect="non-scaling-stroke" cx="613.1378846153843" cy="167.341224294596" rx="20.733461538461597" ry="21.48373983739839" fill="rgb(255,255,255)"/><ellipse vector-effect="non-scaling-stroke" cx="593.2175000000001" cy="167.34122429459595" rx="15.855000000000018" ry="16.428742228598765" fill="rgb(255,255,255)"/></g><defs><filter id="zevhRsDXkZiCENBc04e4YmXIrCoAqDZD" x="-200%" y="-200%" width="400%" height="400%" filterUnits="objectBoundingBox" color-interpolation-filters="sRGB"><feGaussianBlur xmlns="http://www.w3.org/2000/svg" in="SourceGraphic" stdDeviation="4.293609062839028"/><feOffset xmlns="http://www.w3.org/2000/svg" dx="10" dy="0" result="pf_100_offsetBlur"/><feFlood xmlns="http://www.w3.org/2000/svg" flood-color="#43457F" flood-opacity="0.7"/><feComposite xmlns="http://www.w3.org/2000/svg" in2="pf_100_offsetBlur" operator="in" result="pf_100_dropShadow"/><feBlend xmlns="http://www.w3.org/2000/svg" in="SourceGraphic" in2="pf_100_dropShadow" mode="normal"/></filter></defs><g filter="url(#hqgwGwwauudeurqw8xZvarnD2SuzVnNJ)"><ellipse vector-effect="non-scaling-stroke" cx="539.404423076923" cy="107.9450023912004" rx="20.733461538461597" ry="21.48373983739839" fill="rgb(255,255,255)"/><ellipse vector-effect="non-scaling-stroke" cx="560.1378846153846" cy="96.57125777140124" rx="20.733461538461597" ry="21.48373983739839" fill="rgb(255,255,255)"/><ellipse vector-effect="non-scaling-stroke" cx="580.8713461538463" cy="107.9450023912004" rx="20.733461538461597" ry="21.48373983739839" fill="rgb(255,255,255)"/><ellipse vector-effect="non-scaling-stroke" cx="609.3290384615385" cy="118.05499760879968" rx="20.733461538461597" ry="21.48373983739839" fill="rgb(255,255,255)"/><ellipse vector-effect="non-scaling-stroke" cx="580.8713461538463" cy="129.42874222859882" rx="20.733461538461597" ry="21.48373983739839" fill="rgb(255,255,255)"/><ellipse vector-effect="non-scaling-stroke" cx="518.6709615384615" cy="118.05499760879968" rx="20.73346153846157" ry="21.48373983739839" fill="rgb(255,255,255)"/><ellipse vector-effect="non-scaling-stroke" cx="560.1378846153846" cy="129.42874222859882" rx="20.733461538461597" ry="21.48373983739839" fill="rgb(255,255,255)"/><ellipse vector-effect="non-scaling-stroke" cx="540.2175000000001" cy="129.42874222859882" rx="15.855000000000018" ry="16.428742228598765" fill="rgb(255,255,255)"/></g><defs><filter id="hqgwGwwauudeurqw8xZvarnD2SuzVnNJ" x="-200%" y="-200%" width="400%" height="400%" filterUnits="objectBoundingBox" color-interpolation-filters="sRGB"><feGaussianBlur xmlns="http://www.w3.org/2000/svg" in="SourceGraphic" stdDeviation="4.293609062839028"/><feOffset xmlns="http://www.w3.org/2000/svg" dx="10" dy="0" result="pf_100_offsetBlur"/><feFlood xmlns="http://www.w3.org/2000/svg" flood-color="#43457F" flood-opacity="0.7"/><feComposite xmlns="http://www.w3.org/2000/svg" in2="pf_100_offsetBlur" operator="in" result="pf_100_dropShadow"/><feBlend xmlns="http://www.w3.org/2000/svg" in="SourceGraphic" in2="pf_100_dropShadow" mode="normal"/></filter></defs><g style="opacity:0.32;" filter="url(#T8wf8c9rkJDq4e8crxFWPQDxWXt7aAxH)"><g><circle vector-effect="non-scaling-stroke" cx="158.0319444444445" cy="184.05829746532766" r="20.258333333333354" fill="rgb(255,255,255)"/><circle vector-effect="non-scaling-stroke" cx="137.77361111111122" cy="173.33329746532775" r="20.25833333333336" fill="rgb(255,255,255)"/><circle vector-effect="non-scaling-stroke" cx="117.5152777777778" cy="184.05829746532766" r="20.25833333333337" fill="rgb(255,255,255)"/><circle vector-effect="non-scaling-stroke" cx="89.70972222222224" cy="193.59163079866093" r="20.25833333333337" fill="rgb(255,255,255)"/><circle vector-effect="non-scaling-stroke" cx="117.5152777777778" cy="204.316630798661" r="20.25833333333337" fill="rgb(255,255,255)"/><circle vector-effect="non-scaling-stroke" cx="178.29027777777785" cy="193.59163079866093" r="20.258333333333354" fill="rgb(255,255,255)"/><circle vector-effect="non-scaling-stroke" cx="137.77361111111122" cy="204.316630798661" r="20.25833333333336" fill="rgb(255,255,255)"/><circle vector-effect="non-scaling-stroke" cx="157.23750000000018" cy="204.31663079866095" r="15.491666666666674" fill="rgb(255,255,255)"/></g></g><defs><filter id="T8wf8c9rkJDq4e8crxFWPQDxWXt7aAxH" x="-200%" y="-200%" width="400%" height="400%" filterUnits="objectBoundingBox" color-interpolation-filters="sRGB"><feGaussianBlur xmlns="http://www.w3.org/2000/svg" in="SourceGraphic" stdDeviation="4.293609062839028"/><feOffset xmlns="http://www.w3.org/2000/svg" dx="10" dy="0" result="pf_100_offsetBlur"/><feFlood xmlns="http://www.w3.org/2000/svg" flood-color="#43457F" flood-opacity="0.7"/><feComposite xmlns="http://www.w3.org/2000/svg" in2="pf_100_offsetBlur" operator="in" result="pf_100_dropShadow"/><feBlend xmlns="http://www.w3.org/2000/svg" in="SourceGraphic" in2="pf_100_dropShadow" mode="normal"/></filter></defs><g filter="url(#b1KU6yTF5HyydKk63mVP9iRmC0b10qt8)"><path d=" M 252.329 280.555 C 252.329 292.412 243.039 302.039 231.596 302.039 C 220.152 302.039 210.862 292.412 210.862 280.555 C 210.862 268.698 220.152 259.071 231.596 259.071 C 243.039 259.071 252.329 268.698 252.329 280.555 Z " fill="rgb(255,255,255)"/><path d=" M 231.596 291.929 C 231.596 303.786 222.305 313.412 210.862 313.412 C 199.419 313.412 190.129 303.786 190.129 291.929 C 190.129 280.072 199.419 270.445 210.862 270.445 C 222.305 270.445 231.596 280.072 231.596 291.929 Z " fill="rgb(255,255,255)"/><path d=" M 210.862 280.555 C 210.862 292.412 201.572 302.039 190.129 302.039 C 178.686 302.039 169.395 292.412 169.395 280.555 C 169.395 268.698 178.686 259.071 190.129 259.071 C 201.572 259.071 210.862 268.698 210.862 280.555 Z " fill="rgb(255,255,255)"/><path d=" M 182.404 270.445 C 182.404 282.302 173.114 291.929 161.671 291.929 C 150.228 291.929 140.937 282.302 140.937 270.445 C 140.937 258.588 150.228 248.961 161.671 248.961 C 173.114 248.961 182.404 258.588 182.404 270.445 Z " fill="rgb(255,255,255)"/><path d=" M 210.862 259.071 C 210.862 270.928 201.572 280.555 190.129 280.555 C 178.686 280.555 169.395 270.928 169.395 259.071 C 169.395 247.214 178.686 237.588 190.129 237.588 C 201.572 237.588 210.862 247.214 210.862 259.071 Z " fill="rgb(255,255,255)"/><path d=" M 273.063 270.445 C 273.063 282.302 263.772 291.929 252.329 291.929 C 240.886 291.929 231.596 282.302 231.596 270.445 C 231.596 258.588 240.886 248.961 252.329 248.961 C 263.772 248.961 273.063 258.588 273.063 270.445 Z " fill="rgb(255,255,255)"/><path d=" M 231.596 259.071 C 231.596 270.928 222.305 280.555 210.862 280.555 C 199.419 280.555 190.129 270.928 190.129 259.071 C 190.129 247.214 199.419 237.588 210.862 237.588 C 222.305 237.588 231.596 247.214 231.596 259.071 Z " fill="rgb(255,255,255)"/><path d=" M 246.637 259.071 C 246.637 268.139 239.533 275.5 230.782 275.5 C 222.032 275.5 214.927 268.139 214.927 259.071 C 214.927 250.004 222.032 242.643 230.782 242.643 C 239.533 242.643 246.637 250.004 246.637 259.071 Z " fill="rgb(255,255,255)"/></g><defs><filter id="b1KU6yTF5HyydKk63mVP9iRmC0b10qt8" x="-200%" y="-200%" width="400%" height="400%" filterUnits="objectBoundingBox" color-interpolation-filters="sRGB"><feGaussianBlur xmlns="http://www.w3.org/2000/svg" in="SourceGraphic" stdDeviation="4.293609062839028"/><feOffset xmlns="http://www.w3.org/2000/svg" dx="10" dy="0" result="pf_100_offsetBlur"/><feFlood xmlns="http://www.w3.org/2000/svg" flood-color="#43457F" flood-opacity="0.7"/><feComposite xmlns="http://www.w3.org/2000/svg" in2="pf_100_offsetBlur" operator="in" result="pf_100_dropShadow"/><feBlend xmlns="http://www.w3.org/2000/svg" in="SourceGraphic" in2="pf_100_dropShadow" mode="normal"/></filter></defs><g filter="url(#tPxosxB888eZ08ecAAj2Ijl68ZAPL53L)"><g><circle vector-effect="non-scaling-stroke" cx="530.9548611111112" cy="249.08333333333303" r="37.89583333333334" fill="rgb(255,255,255)"/><circle vector-effect="non-scaling-stroke" cx="493.05902777777806" cy="229.02083333333337" r="37.89583333333334" fill="rgb(255,255,255)"/><circle vector-effect="non-scaling-stroke" cx="455.1631944444445" cy="249.08333333333303" r="37.895833333333314" fill="rgb(255,255,255)"/><circle vector-effect="non-scaling-stroke" cx="403.1493055555557" cy="266.9166666666664" r="37.895833333333314" fill="rgb(255,255,255)"/><circle vector-effect="non-scaling-stroke" cx="455.1631944444445" cy="286.97916666666663" r="37.895833333333314" fill="rgb(255,255,255)"/><circle vector-effect="non-scaling-stroke" cx="568.8506944444443" cy="266.9166666666664" r="37.89583333333337" fill="rgb(255,255,255)"/><circle vector-effect="non-scaling-stroke" cx="493.05902777777806" cy="286.97916666666663" r="37.89583333333334" fill="rgb(255,255,255)"/><circle vector-effect="non-scaling-stroke" cx="529.4687500000006" cy="286.9791666666666" r="28.97916666666663" fill="rgb(255,255,255)"/></g></g><defs><filter id="tPxosxB888eZ08ecAAj2Ijl68ZAPL53L" x="-200%" y="-200%" width="400%" height="400%" filterUnits="objectBoundingBox" color-interpolation-filters="sRGB"><feGaussianBlur xmlns="http://www.w3.org/2000/svg" in="SourceGraphic" stdDeviation="4.293609062839028"/><feOffset xmlns="http://www.w3.org/2000/svg" dx="10" dy="0" result="pf_100_offsetBlur"/><feFlood xmlns="http://www.w3.org/2000/svg" flood-color="#43457F" flood-opacity="0.7"/><feComposite xmlns="http://www.w3.org/2000/svg" in2="pf_100_offsetBlur" operator="in" result="pf_100_dropShadow"/><feBlend xmlns="http://www.w3.org/2000/svg" in="SourceGraphic" in2="pf_100_dropShadow" mode="normal"/></filter></defs></g></svg>