<?xml version="1.0" encoding="UTF-8" standalone="no"?><!-- Generator: Gravit.io --><svg xmlns="http://www.w3.org/2000/svg" xmlns:xlink="http://www.w3.org/1999/xlink" style="isolation:isolate" viewBox="0 0 128 128" width="128pt" height="128pt"><defs><clipPath id="_clipPath_DUV0BiM6duVq7FKziqyeC5qMIpPFjGDe"><rect width="128" height="128"/></clipPath></defs><g clip-path="url(#_clipPath_DUV0BiM6duVq7FKziqyeC5qMIpPFjGDe)"><defs><filter id="RegsmJG9FtZv9Wp8fXWack1RyntEwNm9" x="-200%" y="-200%" width="400%" height="400%" filterUnits="objectBoundingBox" color-interpolation-filters="sRGB"><feGaussianBlur xmlns="http://www.w3.org/2000/svg" in="SourceGraphic" stdDeviation="0"/><feOffset xmlns="http://www.w3.org/2000/svg" dx="2" dy="2" result="pf_100_offsetBlur"/><feFlood xmlns="http://www.w3.org/2000/svg" flood-color="#43457F" flood-opacity="0.65"/><feComposite xmlns="http://www.w3.org/2000/svg" in2="pf_100_offsetBlur" operator="in" result="pf_100_dropShadow"/><feBlend xmlns="http://www.w3.org/2000/svg" in="SourceGraphic" in2="pf_100_dropShadow" mode="normal"/></filter></defs><g filter="url(#RegsmJG9FtZv9Wp8fXWack1RyntEwNm9)"><path d=" M 107.025 20.323 L 111.523 20.323 C 116.596 20.323 120.715 24.441 120.715 29.515 L 120.715 30.688 C 120.715 35.761 116.596 39.88 111.523 39.88 L 16.477 39.88 C 11.404 39.88 7.285 35.761 7.285 30.688 L 7.285 29.515 C 7.285 24.441 11.404 20.323 16.477 20.323 L 20.975 20.323 L 20.975 26.503 C 20.975 29.568 23.463 32.057 26.529 32.057 L 31.066 32.057 C 34.132 32.057 36.62 29.568 36.62 26.503 L 36.62 20.323 L 91.38 20.323 L 91.38 26.503 C 91.38 29.568 93.868 32.057 96.934 32.057 L 101.471 32.057 C 104.537 32.057 107.025 29.568 107.025 26.503 L 107.025 20.323 Z " fill-rule="evenodd" fill="rgb(221,163,221)"/></g><defs><filter id="JHv0EMx9ngTOleuovwTiPov3id39CZzE" x="-200%" y="-200%" width="400%" height="400%" filterUnits="objectBoundingBox" color-interpolation-filters="sRGB"><feGaussianBlur xmlns="http://www.w3.org/2000/svg" in="SourceGraphic" stdDeviation="0"/><feOffset xmlns="http://www.w3.org/2000/svg" dx="2" dy="2" result="pf_100_offsetBlur"/><feFlood xmlns="http://www.w3.org/2000/svg" flood-color="#43457F" flood-opacity="0.65"/><feComposite xmlns="http://www.w3.org/2000/svg" in2="pf_100_offsetBlur" operator="in" result="pf_100_dropShadow"/><feBlend xmlns="http://www.w3.org/2000/svg" in="SourceGraphic" in2="pf_100_dropShadow" mode="normal"/></filter></defs><g filter="url(#JHv0EMx9ngTOleuovwTiPov3id39CZzE)"><path d="M 34.013 16.203 L 34.013 24.443 C 34.013 26.486 32.353 28.146 30.31 28.146 L 27.285 28.146 C 25.241 28.146 23.582 26.486 23.582 24.443 L 23.582 16.203 C 23.582 14.159 25.241 12.5 27.285 12.5 L 30.31 12.5 C 32.353 12.5 34.013 14.159 34.013 16.203 Z" style="stroke:none;fill:#DDA3DD;stroke-miterlimit:10;"/></g><defs><filter id="abw5hjSma5tzsQvM3gfzjhxfP0xouPRc" x="-200%" y="-200%" width="400%" height="400%" filterUnits="objectBoundingBox" color-interpolation-filters="sRGB"><feGaussianBlur xmlns="http://www.w3.org/2000/svg" in="SourceGraphic" stdDeviation="0"/><feOffset xmlns="http://www.w3.org/2000/svg" dx="2" dy="2" result="pf_100_offsetBlur"/><feFlood xmlns="http://www.w3.org/2000/svg" flood-color="#43457F" flood-opacity="0.65"/><feComposite xmlns="http://www.w3.org/2000/svg" in2="pf_100_offsetBlur" operator="in" result="pf_100_dropShadow"/><feBlend xmlns="http://www.w3.org/2000/svg" in="SourceGraphic" in2="pf_100_dropShadow" mode="normal"/></filter></defs><g filter="url(#abw5hjSma5tzsQvM3gfzjhxfP0xouPRc)"><path d="M 104.418 16.203 L 104.418 24.443 C 104.418 26.486 102.759 28.146 100.715 28.146 L 97.69 28.146 C 95.647 28.146 93.987 26.486 93.987 24.443 L 93.987 16.203 C 93.987 14.159 95.647 12.5 97.69 12.5 L 100.715 12.5 C 102.759 12.5 104.418 14.159 104.418 16.203 Z" style="stroke:none;fill:#DDA3DD;stroke-miterlimit:10;"/></g><defs><filter id="fcRhjnualGW1TM1BdM11zl7wjdwGOiGs" x="-200%" y="-200%" width="400%" height="400%" filterUnits="objectBoundingBox" color-interpolation-filters="sRGB"><feGaussianBlur xmlns="http://www.w3.org/2000/svg" in="SourceGraphic" stdDeviation="0"/><feOffset xmlns="http://www.w3.org/2000/svg" dx="2" dy="2" result="pf_100_offsetBlur"/><feFlood xmlns="http://www.w3.org/2000/svg" flood-color="#43457F" flood-opacity="0.65"/><feComposite xmlns="http://www.w3.org/2000/svg" in2="pf_100_offsetBlur" operator="in" result="pf_100_dropShadow"/><feBlend xmlns="http://www.w3.org/2000/svg" in="SourceGraphic" in2="pf_100_dropShadow" mode="normal"/></filter></defs><g filter="url(#fcRhjnualGW1TM1BdM11zl7wjdwGOiGs)"><path d="M 24.677 68.563 L 32.917 68.563 C 34.961 68.563 36.62 70.222 36.62 72.266 L 36.62 75.291 C 36.62 77.335 34.961 78.994 32.917 78.994 L 24.677 78.994 C 22.634 78.994 20.975 77.335 20.975 75.291 L 20.975 72.266 C 20.975 70.222 22.634 68.563 24.677 68.563 Z" style="stroke:none;fill:#DDA3DD;stroke-miterlimit:10;"/></g><defs><filter id="psw8L5rnEsv1uymJN90oQ4bf0PILBUmS" x="-200%" y="-200%" width="400%" height="400%" filterUnits="objectBoundingBox" color-interpolation-filters="sRGB"><feGaussianBlur xmlns="http://www.w3.org/2000/svg" in="SourceGraphic" stdDeviation="0"/><feOffset xmlns="http://www.w3.org/2000/svg" dx="2" dy="2" result="pf_100_offsetBlur"/><feFlood xmlns="http://www.w3.org/2000/svg" flood-color="#43457F" flood-opacity="0.65"/><feComposite xmlns="http://www.w3.org/2000/svg" in2="pf_100_offsetBlur" operator="in" result="pf_100_dropShadow"/><feBlend xmlns="http://www.w3.org/2000/svg" in="SourceGraphic" in2="pf_100_dropShadow" mode="normal"/></filter></defs><g filter="url(#psw8L5rnEsv1uymJN90oQ4bf0PILBUmS)"><path d="M 24.677 86.816 L 32.917 86.816 C 34.961 86.816 36.62 88.476 36.62 90.519 L 36.62 93.544 C 36.62 95.588 34.961 97.247 32.917 97.247 L 24.677 97.247 C 22.634 97.247 20.975 95.588 20.975 93.544 L 20.975 90.519 C 20.975 88.476 22.634 86.816 24.677 86.816 Z" style="stroke:none;fill:#DDA3DD;stroke-miterlimit:10;"/></g><defs><filter id="mpVdUuLk1ZgkZsz4LaelTRgOzz0mrRM3" x="-200%" y="-200%" width="400%" height="400%" filterUnits="objectBoundingBox" color-interpolation-filters="sRGB"><feGaussianBlur xmlns="http://www.w3.org/2000/svg" in="SourceGraphic" stdDeviation="0"/><feOffset xmlns="http://www.w3.org/2000/svg" dx="2" dy="2" result="pf_100_offsetBlur"/><feFlood xmlns="http://www.w3.org/2000/svg" flood-color="#43457F" flood-opacity="0.65"/><feComposite xmlns="http://www.w3.org/2000/svg" in2="pf_100_offsetBlur" operator="in" result="pf_100_dropShadow"/><feBlend xmlns="http://www.w3.org/2000/svg" in="SourceGraphic" in2="pf_100_dropShadow" mode="normal"/></filter></defs><g filter="url(#mpVdUuLk1ZgkZsz4LaelTRgOzz0mrRM3)"><path d="M 24.677 105.07 L 32.917 105.07 C 34.961 105.07 36.62 106.729 36.62 108.772 L 36.62 111.797 C 36.62 113.841 34.961 115.5 32.917 115.5 L 24.677 115.5 C 22.634 115.5 20.975 113.841 20.975 111.797 L 20.975 108.772 C 20.975 106.729 22.634 105.07 24.677 105.07 Z" style="stroke:none;fill:#DDA3DD;stroke-miterlimit:10;"/></g><defs><filter id="ylYbJ1j9VawdfJ98a1VmQ3URK2X2WDQp" x="-200%" y="-200%" width="400%" height="400%" filterUnits="objectBoundingBox" color-interpolation-filters="sRGB"><feGaussianBlur xmlns="http://www.w3.org/2000/svg" in="SourceGraphic" stdDeviation="0"/><feOffset xmlns="http://www.w3.org/2000/svg" dx="2" dy="2" result="pf_100_offsetBlur"/><feFlood xmlns="http://www.w3.org/2000/svg" flood-color="#43457F" flood-opacity="0.65"/><feComposite xmlns="http://www.w3.org/2000/svg" in2="pf_100_offsetBlur" operator="in" result="pf_100_dropShadow"/><feBlend xmlns="http://www.w3.org/2000/svg" in="SourceGraphic" in2="pf_100_dropShadow" mode="normal"/></filter></defs><g filter="url(#ylYbJ1j9VawdfJ98a1VmQ3URK2X2WDQp)"><path d="M 48.146 50.31 L 56.386 50.31 C 58.429 50.31 60.089 51.969 60.089 54.013 L 60.089 57.038 C 60.089 59.081 58.429 60.741 56.386 60.741 L 48.146 60.741 C 46.102 60.741 44.443 59.081 44.443 57.038 L 44.443 54.013 C 44.443 51.969 46.102 50.31 48.146 50.31 Z" style="stroke:none;fill:#DDA3DD;stroke-miterlimit:10;"/></g><defs><filter id="mzPvwn43dbUJWlrWiR0gQYYPmgbtZd7P" x="-200%" y="-200%" width="400%" height="400%" filterUnits="objectBoundingBox" color-interpolation-filters="sRGB"><feGaussianBlur xmlns="http://www.w3.org/2000/svg" in="SourceGraphic" stdDeviation="0"/><feOffset xmlns="http://www.w3.org/2000/svg" dx="2" dy="2" result="pf_100_offsetBlur"/><feFlood xmlns="http://www.w3.org/2000/svg" flood-color="#43457F" flood-opacity="0.65"/><feComposite xmlns="http://www.w3.org/2000/svg" in2="pf_100_offsetBlur" operator="in" result="pf_100_dropShadow"/><feBlend xmlns="http://www.w3.org/2000/svg" in="SourceGraphic" in2="pf_100_dropShadow" mode="normal"/></filter></defs><g filter="url(#mzPvwn43dbUJWlrWiR0gQYYPmgbtZd7P)"><path d="M 48.146 68.563 L 56.386 68.563 C 58.429 68.563 60.089 70.222 60.089 72.266 L 60.089 75.291 C 60.089 77.335 58.429 78.994 56.386 78.994 L 48.146 78.994 C 46.102 78.994 44.443 77.335 44.443 75.291 L 44.443 72.266 C 44.443 70.222 46.102 68.563 48.146 68.563 Z" style="stroke:none;fill:#DDA3DD;stroke-miterlimit:10;"/></g><defs><filter id="AHPHDFjixkKhH9f4D1kvkuaIp3OoWqc4" x="-200%" y="-200%" width="400%" height="400%" filterUnits="objectBoundingBox" color-interpolation-filters="sRGB"><feGaussianBlur xmlns="http://www.w3.org/2000/svg" in="SourceGraphic" stdDeviation="0"/><feOffset xmlns="http://www.w3.org/2000/svg" dx="2" dy="2" result="pf_100_offsetBlur"/><feFlood xmlns="http://www.w3.org/2000/svg" flood-color="#43457F" flood-opacity="0.65"/><feComposite xmlns="http://www.w3.org/2000/svg" in2="pf_100_offsetBlur" operator="in" result="pf_100_dropShadow"/><feBlend xmlns="http://www.w3.org/2000/svg" in="SourceGraphic" in2="pf_100_dropShadow" mode="normal"/></filter></defs><g filter="url(#AHPHDFjixkKhH9f4D1kvkuaIp3OoWqc4)"><path d="M 48.146 86.816 L 56.386 86.816 C 58.429 86.816 60.089 88.476 60.089 90.519 L 60.089 93.544 C 60.089 95.588 58.429 97.247 56.386 97.247 L 48.146 97.247 C 46.102 97.247 44.443 95.588 44.443 93.544 L 44.443 90.519 C 44.443 88.476 46.102 86.816 48.146 86.816 Z" style="stroke:none;fill:#DDA3DD;stroke-miterlimit:10;"/></g><defs><filter id="dzkAA7H08cpqL9PmRABLmjnjjbgwcKQo" x="-200%" y="-200%" width="400%" height="400%" filterUnits="objectBoundingBox" color-interpolation-filters="sRGB"><feGaussianBlur xmlns="http://www.w3.org/2000/svg" in="SourceGraphic" stdDeviation="0"/><feOffset xmlns="http://www.w3.org/2000/svg" dx="2" dy="2" result="pf_100_offsetBlur"/><feFlood xmlns="http://www.w3.org/2000/svg" flood-color="#43457F" flood-opacity="0.65"/><feComposite xmlns="http://www.w3.org/2000/svg" in2="pf_100_offsetBlur" operator="in" result="pf_100_dropShadow"/><feBlend xmlns="http://www.w3.org/2000/svg" in="SourceGraphic" in2="pf_100_dropShadow" mode="normal"/></filter></defs><g filter="url(#dzkAA7H08cpqL9PmRABLmjnjjbgwcKQo)"><path d="M 48.146 105.07 L 56.386 105.07 C 58.429 105.07 60.089 106.729 60.089 108.772 L 60.089 111.797 C 60.089 113.841 58.429 115.5 56.386 115.5 L 48.146 115.5 C 46.102 115.5 44.443 113.841 44.443 111.797 L 44.443 108.772 C 44.443 106.729 46.102 105.07 48.146 105.07 Z" style="stroke:none;fill:#DDA3DD;stroke-miterlimit:10;"/></g><defs><filter id="iyvwaFC2TOS8vXY55FuLXF7tahvYObh2" x="-200%" y="-200%" width="400%" height="400%" filterUnits="objectBoundingBox" color-interpolation-filters="sRGB"><feGaussianBlur xmlns="http://www.w3.org/2000/svg" in="SourceGraphic" stdDeviation="0"/><feOffset xmlns="http://www.w3.org/2000/svg" dx="2" dy="2" result="pf_100_offsetBlur"/><feFlood xmlns="http://www.w3.org/2000/svg" flood-color="#43457F" flood-opacity="0.65"/><feComposite xmlns="http://www.w3.org/2000/svg" in2="pf_100_offsetBlur" operator="in" result="pf_100_dropShadow"/><feBlend xmlns="http://www.w3.org/2000/svg" in="SourceGraphic" in2="pf_100_dropShadow" mode="normal"/></filter></defs><g filter="url(#iyvwaFC2TOS8vXY55FuLXF7tahvYObh2)"><path d="M 71.614 50.31 L 79.854 50.31 C 81.898 50.31 83.557 51.969 83.557 54.013 L 83.557 57.038 C 83.557 59.081 81.898 60.741 79.854 60.741 L 71.614 60.741 C 69.571 60.741 67.911 59.081 67.911 57.038 L 67.911 54.013 C 67.911 51.969 69.571 50.31 71.614 50.31 Z" style="stroke:none;fill:#DDA3DD;stroke-miterlimit:10;"/></g><defs><filter id="aIkJlxpSnGmJAqDni8xZqyqvtaGfLzV6" x="-200%" y="-200%" width="400%" height="400%" filterUnits="objectBoundingBox" color-interpolation-filters="sRGB"><feGaussianBlur xmlns="http://www.w3.org/2000/svg" in="SourceGraphic" stdDeviation="0"/><feOffset xmlns="http://www.w3.org/2000/svg" dx="2" dy="2" result="pf_100_offsetBlur"/><feFlood xmlns="http://www.w3.org/2000/svg" flood-color="#43457F" flood-opacity="0.65"/><feComposite xmlns="http://www.w3.org/2000/svg" in2="pf_100_offsetBlur" operator="in" result="pf_100_dropShadow"/><feBlend xmlns="http://www.w3.org/2000/svg" in="SourceGraphic" in2="pf_100_dropShadow" mode="normal"/></filter></defs><g filter="url(#aIkJlxpSnGmJAqDni8xZqyqvtaGfLzV6)"><path d="M 71.614 68.563 L 79.854 68.563 C 81.898 68.563 83.557 70.222 83.557 72.266 L 83.557 75.291 C 83.557 77.335 81.898 78.994 79.854 78.994 L 71.614 78.994 C 69.571 78.994 67.911 77.335 67.911 75.291 L 67.911 72.266 C 67.911 70.222 69.571 68.563 71.614 68.563 Z" style="stroke:none;fill:#DDA3DD;stroke-miterlimit:10;"/></g><defs><filter id="jT91l74J2DaX916ujzjxlW9WX3tBMp1Y" x="-200%" y="-200%" width="400%" height="400%" filterUnits="objectBoundingBox" color-interpolation-filters="sRGB"><feGaussianBlur xmlns="http://www.w3.org/2000/svg" in="SourceGraphic" stdDeviation="0"/><feOffset xmlns="http://www.w3.org/2000/svg" dx="2" dy="2" result="pf_100_offsetBlur"/><feFlood xmlns="http://www.w3.org/2000/svg" flood-color="#43457F" flood-opacity="0.65"/><feComposite xmlns="http://www.w3.org/2000/svg" in2="pf_100_offsetBlur" operator="in" result="pf_100_dropShadow"/><feBlend xmlns="http://www.w3.org/2000/svg" in="SourceGraphic" in2="pf_100_dropShadow" mode="normal"/></filter></defs><g filter="url(#jT91l74J2DaX916ujzjxlW9WX3tBMp1Y)"><path d="M 71.614 86.816 L 79.854 86.816 C 81.898 86.816 83.557 88.476 83.557 90.519 L 83.557 93.544 C 83.557 95.588 81.898 97.247 79.854 97.247 L 71.614 97.247 C 69.571 97.247 67.911 95.588 67.911 93.544 L 67.911 90.519 C 67.911 88.476 69.571 86.816 71.614 86.816 Z" style="stroke:none;fill:#DDA3DD;stroke-miterlimit:10;"/></g><defs><filter id="7lTXUmVrlzyv7ODi2mIRHhn7LB5SAJdp" x="-200%" y="-200%" width="400%" height="400%" filterUnits="objectBoundingBox" color-interpolation-filters="sRGB"><feGaussianBlur xmlns="http://www.w3.org/2000/svg" in="SourceGraphic" stdDeviation="0"/><feOffset xmlns="http://www.w3.org/2000/svg" dx="2" dy="2" result="pf_100_offsetBlur"/><feFlood xmlns="http://www.w3.org/2000/svg" flood-color="#43457F" flood-opacity="0.65"/><feComposite xmlns="http://www.w3.org/2000/svg" in2="pf_100_offsetBlur" operator="in" result="pf_100_dropShadow"/><feBlend xmlns="http://www.w3.org/2000/svg" in="SourceGraphic" in2="pf_100_dropShadow" mode="normal"/></filter></defs><g filter="url(#7lTXUmVrlzyv7ODi2mIRHhn7LB5SAJdp)"><path d="M 71.614 105.07 L 79.854 105.07 C 81.898 105.07 83.557 106.729 83.557 108.772 L 83.557 111.797 C 83.557 113.841 81.898 115.5 79.854 115.5 L 71.614 115.5 C 69.571 115.5 67.911 113.841 67.911 111.797 L 67.911 108.772 C 67.911 106.729 69.571 105.07 71.614 105.07 Z" style="stroke:none;fill:#DDA3DD;stroke-miterlimit:10;"/></g><defs><filter id="upP0w3TF4o04e3pl9z8MqVfHtD3uALAS" x="-200%" y="-200%" width="400%" height="400%" filterUnits="objectBoundingBox" color-interpolation-filters="sRGB"><feGaussianBlur xmlns="http://www.w3.org/2000/svg" in="SourceGraphic" stdDeviation="0"/><feOffset xmlns="http://www.w3.org/2000/svg" dx="2" dy="2" result="pf_100_offsetBlur"/><feFlood xmlns="http://www.w3.org/2000/svg" flood-color="#43457F" flood-opacity="0.65"/><feComposite xmlns="http://www.w3.org/2000/svg" in2="pf_100_offsetBlur" operator="in" result="pf_100_dropShadow"/><feBlend xmlns="http://www.w3.org/2000/svg" in="SourceGraphic" in2="pf_100_dropShadow" mode="normal"/></filter></defs><g filter="url(#upP0w3TF4o04e3pl9z8MqVfHtD3uALAS)"><path d="M 95.083 50.31 L 103.323 50.31 C 105.366 50.31 107.025 51.969 107.025 54.013 L 107.025 57.038 C 107.025 59.081 105.366 60.741 103.323 60.741 L 95.083 60.741 C 93.039 60.741 91.38 59.081 91.38 57.038 L 91.38 54.013 C 91.38 51.969 93.039 50.31 95.083 50.31 Z" style="stroke:none;fill:#DDA3DD;stroke-miterlimit:10;"/></g><defs><filter id="E3Z5pnzw0qF7k6iIXJHNVdMt7AjfmSzS" x="-200%" y="-200%" width="400%" height="400%" filterUnits="objectBoundingBox" color-interpolation-filters="sRGB"><feGaussianBlur xmlns="http://www.w3.org/2000/svg" in="SourceGraphic" stdDeviation="0"/><feOffset xmlns="http://www.w3.org/2000/svg" dx="2" dy="2" result="pf_100_offsetBlur"/><feFlood xmlns="http://www.w3.org/2000/svg" flood-color="#43457F" flood-opacity="0.65"/><feComposite xmlns="http://www.w3.org/2000/svg" in2="pf_100_offsetBlur" operator="in" result="pf_100_dropShadow"/><feBlend xmlns="http://www.w3.org/2000/svg" in="SourceGraphic" in2="pf_100_dropShadow" mode="normal"/></filter></defs><g filter="url(#E3Z5pnzw0qF7k6iIXJHNVdMt7AjfmSzS)"><path d="M 95.083 68.563 L 103.323 68.563 C 105.366 68.563 107.025 70.222 107.025 72.266 L 107.025 75.291 C 107.025 77.335 105.366 78.994 103.323 78.994 L 95.083 78.994 C 93.039 78.994 91.38 77.335 91.38 75.291 L 91.38 72.266 C 91.38 70.222 93.039 68.563 95.083 68.563 Z" style="stroke:none;fill:#DDA3DD;stroke-miterlimit:10;"/></g><defs><filter id="C9eelUqM5qsbasSAqRAaHc6FPc3hsKCO" x="-200%" y="-200%" width="400%" height="400%" filterUnits="objectBoundingBox" color-interpolation-filters="sRGB"><feGaussianBlur xmlns="http://www.w3.org/2000/svg" in="SourceGraphic" stdDeviation="0"/><feOffset xmlns="http://www.w3.org/2000/svg" dx="2" dy="2" result="pf_100_offsetBlur"/><feFlood xmlns="http://www.w3.org/2000/svg" flood-color="#43457F" flood-opacity="0.65"/><feComposite xmlns="http://www.w3.org/2000/svg" in2="pf_100_offsetBlur" operator="in" result="pf_100_dropShadow"/><feBlend xmlns="http://www.w3.org/2000/svg" in="SourceGraphic" in2="pf_100_dropShadow" mode="normal"/></filter></defs><g filter="url(#C9eelUqM5qsbasSAqRAaHc6FPc3hsKCO)"><path d="M 95.083 86.816 L 103.323 86.816 C 105.366 86.816 107.025 88.476 107.025 90.519 L 107.025 93.544 C 107.025 95.588 105.366 97.247 103.323 97.247 L 95.083 97.247 C 93.039 97.247 91.38 95.588 91.38 93.544 L 91.38 90.519 C 91.38 88.476 93.039 86.816 95.083 86.816 Z" style="stroke:none;fill:#DDA3DD;stroke-miterlimit:10;"/></g><defs><filter id="Bkbxh3jOLmrZcvnlrAcLJlK4DiaL9YZw" x="-200%" y="-200%" width="400%" height="400%" filterUnits="objectBoundingBox" color-interpolation-filters="sRGB"><feGaussianBlur xmlns="http://www.w3.org/2000/svg" in="SourceGraphic" stdDeviation="0"/><feOffset xmlns="http://www.w3.org/2000/svg" dx="2" dy="2" result="pf_100_offsetBlur"/><feFlood xmlns="http://www.w3.org/2000/svg" flood-color="#43457F" flood-opacity="0.65"/><feComposite xmlns="http://www.w3.org/2000/svg" in2="pf_100_offsetBlur" operator="in" result="pf_100_dropShadow"/><feBlend xmlns="http://www.w3.org/2000/svg" in="SourceGraphic" in2="pf_100_dropShadow" mode="normal"/></filter></defs><g filter="url(#Bkbxh3jOLmrZcvnlrAcLJlK4DiaL9YZw)"><path d="M 95.083 105.07 L 103.323 105.07 C 105.366 105.07 107.025 106.729 107.025 108.772 L 107.025 111.797 C 107.025 113.841 105.366 115.5 103.323 115.5 L 95.083 115.5 C 93.039 115.5 91.38 113.841 91.38 111.797 L 91.38 108.772 C 91.38 106.729 93.039 105.07 95.083 105.07 Z" style="stroke:none;fill:#DDA3DD;stroke-miterlimit:10;"/></g></g></svg>