<?xml version="1.0" encoding="UTF-8" standalone="no"?><!-- Generator: Gravit.io --><svg xmlns="http://www.w3.org/2000/svg" xmlns:xlink="http://www.w3.org/1999/xlink" style="isolation:isolate" viewBox="0 0 733.836 496.72" width="733.836pt" height="496.72pt"><defs><clipPath id="_clipPath_8wbQ8jn42yZm0NYsTLM0JsV3haFYAplj"><rect width="733.836" height="496.72"/></clipPath></defs><g clip-path="url(#_clipPath_8wbQ8jn42yZm0NYsTLM0JsV3haFYAplj)"><rect width="733.836" height="496.72" style="fill:rgb(221,218,218)" fill-opacity="0"/><g><path d=" M 342.794 75.798 L 377.901 66.894 L 377.901 66.894 L 592.39 69.225 L 592.39 69.225 C 609.564 80.641 623.746 95.465 636.057 114.823 Q 655.932 146.073 664.057 185.823 Q 6.258 216.674 34.78 185.478 C 63.452 154.119 80.868 135.892 108.968 125.062 C 140.968 112.728 173.176 113.687 204.301 118.062 Q 235.426 122.437 279.057 121.9 Q 291.39 106.595 303.258 95.82 L 342.794 75.798 L 342.794 75.798 Z " fill="rgb(103,140,46)" vector-effect="non-scaling-stroke" stroke-width="5" stroke="rgb(32,38,23)" stroke-linejoin="miter" stroke-linecap="square" stroke-miterlimit="3"/><path d=" M 376.686 75.294 C 350.251 85.476 325.452 98.302 316.218 105.603 Q 300.925 117.695 279.635 145.062 Q 238.968 135.728 212.711 133.411 C 181.661 129.047 137.514 125.858 106.968 135.062 Q 84.843 141.728 65.332 157.516 C 62.725 159.625 62.559 159.439 64.962 157.1 Q 77.093 145.291 92.888 135.621 C 100.135 131.324 108.69 128.222 115.241 125.502 C 120.495 123.32 136.851 118.984 156.343 117.853 C 172.24 116.931 190.473 118.737 204.421 120.697 Q 235.472 125.062 279.551 124.549 Q 295.388 104.894 310.477 92.549 C 315.24 88.652 324.849 82.746 337.075 76.372 L 376.686 75.294 L 376.686 75.294 Z " fill="rgb(84,113,41)"/></g><g><path d=" M 670.662 229.093 C 664.512 193.546 649.721 157.159 658.825 155.584 C 667.928 154.009 697.501 187.839 703.651 223.385 C 709.8 258.932 703.461 280.814 694.358 282.389 C 685.254 283.964 676.812 264.639 670.662 229.093 Z " fill="rgb(103,140,46)" vector-effect="non-scaling-stroke" stroke-width="5" stroke="rgb(32,38,23)" stroke-linejoin="miter" stroke-linecap="square" stroke-miterlimit="3"/><path d=" M 681.33 179.131 C 687.792 184.666 697.791 204.349 701.343 225.478 C 706.259 254.722 701.929 279.11 694.445 280.405 C 689.061 281.337 683.958 273.377 679.635 257.97 C 681.442 259.75 683.305 260.489 685.201 260.161 C 692.936 258.823 698.322 240.231 693.097 210.03 C 691.202 199.077 686.69 188.317 681.33 179.131 Z " fill-rule="evenodd" fill="rgb(84,113,41)"/></g><g><path d=" M 584.718 460.978 C 584.718 449.871 607.48 428.758 647.968 432.228 C 674.218 434.478 729.218 438.228 726.218 454.478 C 724.172 465.563 693.85 469.978 661.718 469.978 C 629.586 469.978 584.718 472.086 584.718 460.978 Z " fill="rgb(103,140,46)" vector-effect="non-scaling-stroke" stroke-width="5" stroke="rgb(32,38,23)" stroke-linejoin="miter" stroke-linecap="square" stroke-miterlimit="3"/><path d=" M 587.639 459.618 C 587.397 459.958 587.279 460.211 587.265 460.385 C 586.515 469.525 638.17 467.31 666.665 467.31 C 695.159 467.31 722.049 463.395 723.863 453.565 C 725.199 446.33 712.687 442.619 696.924 440.476 C 699.252 442.384 700.39 444.586 699.92 447.135 C 698.105 456.965 671.215 460.881 642.721 460.881 C 624.522 460.881 601.715 461.643 587.639 459.618 Z " fill-rule="evenodd" fill="rgb(84,113,41)"/></g><g><g><path d=" M 73.909 390.084 C 77.447 398.919 78.449 428.223 85.109 430.947 C 91.768 433.671 98.824 421.545 109.116 414.583 C 119.407 407.621 126.275 404.31 132.026 407.942 C 137.777 411.575 154.257 425.675 151.701 432.158 C 149.298 438.249 115.926 456.638 102.967 462.73 C 90.301 468.684 82.384 473.664 70.636 471.11 C 59.604 468.712 54.631 467.365 50.602 437.001 C 46.616 406.971 46.025 394.14 48.332 385.978 C 50.545 378.146 70.334 381.155 73.909 390.084 Z " fill="rgb(103,140,46)" vector-effect="non-scaling-stroke" stroke-width="5" stroke="rgb(32,38,23)" stroke-linejoin="miter" stroke-linecap="square" stroke-miterlimit="3"/><path d=" M 145.261 423.204 C 148.314 426.123 149.503 429.959 149.015 431.197 C 146.81 436.787 113.109 455.665 101.217 461.256 C 89.594 466.72 82.329 471.29 71.548 468.946 C 61.423 466.745 56.86 465.509 53.162 437.645 C 49.505 410.087 48.601 394.952 50.718 387.463 C 51.183 385.816 52.534 384.845 54.35 384.439 C 54.093 392.217 55.138 403.677 57.636 422.503 C 61.334 450.367 65.897 451.604 76.021 453.805 C 86.802 456.148 94.067 451.578 105.691 446.114 C 114.942 441.765 135.527 430.588 145.261 423.204 Z " fill-rule="evenodd" fill="rgb(84,113,41)"/></g><path d=" M 90.339 443.849 L 90.008 441.698 L 89.908 440.978 C 89.898 440.978 89.898 440.968 89.898 440.958 C 89.798 440.218 89.668 439.478 89.528 438.748 C 89.418 438.168 89.268 437.608 89.078 437.058 C 88.889 436.537 88.668 436.04 88.396 435.569 C 88.286 435.983 88.132 436.386 87.948 436.778 C 87.538 437.668 87.058 438.528 86.528 439.358 C 86.278 439.758 86.038 440.168 85.808 440.578 L 84.616 442.69 C 84.237 443.589 83.348 444.221 82.312 444.221 C 80.932 444.221 79.812 443.1 79.812 441.721 C 79.812 441.202 79.97 440.721 80.24 440.321 L 80.218 440.308 L 81.448 438.128 C 81.718 437.638 82.008 437.158 82.298 436.678 C 82.718 436.038 83.088 435.368 83.418 434.668 C 83.648 434.168 83.778 433.628 83.798 433.068 L 83.888 430.578 L 86.194 430.661 L 89.228 428.248 L 90.788 430.208 C 91.458 431.048 92.068 431.948 92.618 432.878 C 93.088 433.678 93.478 434.518 93.788 435.388 C 94.068 436.178 94.288 436.988 94.448 437.808 C 94.598 438.618 94.728 439.428 94.848 440.238 L 94.958 440.948 L 95.275 443.066 C 95.288 443.131 95.297 443.196 95.305 443.263 L 95.328 443.418 L 95.317 443.42 C 95.319 443.459 95.32 443.498 95.32 443.537 C 95.32 444.917 94.199 446.037 92.82 446.037 C 91.657 446.037 90.679 445.242 90.4 444.167 L 90.388 444.168 L 90.36 443.99 C 90.352 443.943 90.345 443.896 90.339 443.849 Z " fill-rule="evenodd" fill="rgb(32,38,23)"/></g><path d=" M 145.298 446.696 C 135.027 458.971 128.473 446.716 116.198 436.445 C 103.923 426.174 90.545 421.751 100.816 409.476 C 111.087 397.201 129.392 395.574 141.667 405.845 C 153.942 416.116 155.569 434.421 145.298 446.696 Z " fill="rgb(171,200,201)" vector-effect="non-scaling-stroke" stroke-width="5" stroke="rgb(155,119,142)" stroke-linejoin="miter" stroke-linecap="square" stroke-miterlimit="3"/><path d=" M 282.832 169.138 C 219.613 151.278 146.649 131.22 82.077 154.146 C -5.866 185.371 -22.663 299.573 40.416 362.899 C 139.752 462.622 291.932 475.457 424.513 476.824 C 500.876 477.611 596.069 491.249 645.061 418.829 C 695.12 344.831 699.852 186.343 627.156 124.215 C 540.361 50.037 339.281 55.834 282.832 169.138 L 282.832 169.138 L 282.832 169.138 Z  M 282.832 169.138 C 296.034 172.011 309.314 174.72 322.08 179.23 L 322.08 179.23 L 322.08 179.23" fill-rule="evenodd" fill="rgb(163,166,83)" vector-effect="non-scaling-stroke" stroke-width="5" stroke="rgb(32,38,23)" stroke-linejoin="miter" stroke-linecap="square" stroke-miterlimit="3"/><g><path d=" M 284.956 171.432 C 284.835 171.406 284.714 171.38 284.593 171.353 L 284.593 171.353 L 284.593 171.353 L 284.951 171.447 L 284.956 171.432 Z  M 285.798 187.672 C 285.766 187.733 285.735 187.795 285.704 187.856 L 285.704 187.856 L 285.704 187.856 L 285.704 187.856 C 228.079 171.622 161.57 153.39 102.71 174.23 C 22.547 202.613 7.236 306.418 64.735 363.979 C 155.282 454.625 294 466.291 414.852 467.533 C 484.459 468.249 571.231 480.646 615.888 414.818 C 661.519 347.556 665.833 203.495 599.568 147.023 C 526.835 85.038 366.06 84.49 300.622 164.832 L 300.622 164.832 L 325.422 172.11 C 328.896 173.13 330.885 176.777 329.86 180.25 L 326.155 192.805 C 325.13 196.278 321.477 198.27 318.002 197.25 L 286.873 188.115 C 286.492 188.003 286.129 187.86 285.798 187.672 Z  M 283.191 171.172 C 220.295 153.454 147.704 133.554 83.461 156.3 C -4.033 187.278 -20.86 299.432 44.46 363.064 C 143.288 462 292.501 473.06 424.405 474.416 C 500.379 475.197 593.164 490.388 641.905 418.541 C 691.709 345.127 698.084 188.241 625.759 126.604 C 539.406 53.013 339.353 58.764 283.191 171.172 L 283.191 171.172 L 283.191 171.172 L 283.191 171.172 L 283.191 171.172 L 283.191 171.172 Z " fill-rule="evenodd" fill="rgb(134,136,81)"/><g><path d=" M 322.918 178.852 L 320.665 177.916 C 320.485 177.846 320.305 177.776 320.125 177.716 C 319.555 177.516 318.985 177.316 318.425 177.126 C 316.165 176.376 313.905 175.646 311.635 174.926 C 302.555 172.036 293.475 169.166 284.385 166.316 L 282.005 165.566 L 280.505 170.336 L 282.895 171.086 C 291.975 173.936 301.055 176.806 310.125 179.686 C 312.365 180.396 314.605 181.126 316.835 181.876 C 317.385 182.056 317.935 182.246 318.475 182.436 C 318.565 182.466 318.665 182.496 318.755 182.536 L 321.065 183.496 L 321.07 183.483 C 321.403 183.646 321.776 183.738 322.171 183.738 C 323.551 183.738 324.671 182.618 324.671 181.238 C 324.671 180.119 323.933 179.17 322.918 178.852 Z " fill-rule="evenodd" fill="rgb(32,38,23)"/></g></g><g><path d=" M 95.609 185.358 L 95.608 185.358 L 95.468 182.858 C 95.448 182.448 95.438 182.028 95.438 181.618 C 95.428 180.248 95.568 178.888 95.858 177.558 C 96.128 176.338 96.558 175.168 97.138 174.068 C 98.238 172.048 99.838 170.338 101.798 169.128 C 102.738 168.528 103.738 168.018 104.778 167.608 C 105.838 167.188 106.918 166.838 108.018 166.558 C 110.348 165.988 112.708 165.588 115.088 165.358 C 117.278 165.338 119.468 165.268 121.658 165.148 C 123.408 165.048 125.168 164.988 126.918 164.968 C 129.588 164.948 132.258 165.228 134.868 165.788 L 137.308 166.308 L 137.301 166.34 C 138.445 166.569 139.308 167.58 139.308 168.791 C 139.308 170.171 138.188 171.291 136.808 171.291 C 136.484 171.291 136.174 171.229 135.89 171.117 L 133.818 170.668 C 131.568 170.188 129.268 169.958 126.958 169.968 C 125.288 169.988 123.608 170.048 121.938 170.138 C 119.748 170.268 117.548 170.338 115.348 170.348 C 113.288 170.558 111.248 170.918 109.238 171.408 C 108.348 171.638 107.478 171.918 106.618 172.258 C 105.868 172.558 105.138 172.928 104.448 173.358 C 103.228 174.118 102.228 175.168 101.548 176.428 C 101.178 177.118 100.908 177.858 100.748 178.628 C 100.528 179.598 100.428 180.598 100.438 181.598 C 100.438 181.928 100.448 182.258 100.468 182.598 L 100.595 185.039 C 100.604 185.122 100.608 185.206 100.608 185.291 C 100.608 186.671 99.488 187.791 98.108 187.791 C 96.751 187.791 95.645 186.707 95.609 185.358 Z " fill="rgb(32,38,23)"/><path d=" M 100.063 316.536 L 102.079 315.5 C 134.087 299.497 182.479 255.462 192.559 219.06 L 192.559 219.06 L 193.229 216.65 L 193.236 216.652 C 193.513 215.573 194.493 214.775 195.657 214.775 C 197.037 214.775 198.157 215.896 198.157 217.275 C 198.157 217.559 198.11 217.832 198.023 218.086 L 197.379 220.4 C 186.692 258.315 137.638 302.859 104.359 319.96 L 104.359 319.96 L 102.387 320.96 C 102.314 321.002 102.239 321.04 102.162 321.074 L 102.129 321.09 L 102.128 321.089 C 101.827 321.217 101.496 321.288 101.148 321.288 C 99.768 321.288 98.648 320.168 98.648 318.788 C 98.648 317.879 99.135 317.082 99.862 316.645 L 99.859 316.64 L 99.954 316.592 C 99.99 316.572 100.026 316.554 100.063 316.536 Z " fill="rgb(32,38,23)"/><path d=" M 48.771 239.995 L 48.768 240.018 L 46.288 239.708 C 45.928 239.668 45.558 239.608 45.198 239.538 C 44.518 239.408 43.828 239.338 43.138 239.318 C 42.538 239.318 41.938 239.418 41.368 239.608 C 39.978 240.058 38.698 240.788 37.608 241.768 C 36.628 242.678 35.838 243.778 35.268 244.998 C 34.638 246.358 34.198 247.798 33.958 249.278 C 33.688 250.938 33.558 252.608 33.568 254.278 C 33.588 256.708 33.768 259.138 34.118 261.548 C 34.428 263.708 34.778 265.858 35.188 267.998 C 35.268 268.428 35.348 268.858 35.428 269.278 L 35.834 271.497 C 35.882 271.691 35.908 271.894 35.908 272.103 C 35.908 273.483 34.788 274.603 33.408 274.603 C 32.211 274.603 31.21 273.761 30.965 272.637 L 30.958 272.638 L 30.508 270.178 C 30.428 269.758 30.358 269.348 30.278 268.928 C 29.858 266.708 29.488 264.488 29.168 262.258 C 28.788 259.628 28.588 256.968 28.568 254.318 C 28.558 252.358 28.708 250.408 29.028 248.478 C 29.338 246.548 29.918 244.668 30.728 242.898 C 31.578 241.078 32.758 239.438 34.228 238.078 C 35.848 236.618 37.748 235.518 39.818 234.848 C 40.908 234.488 42.048 234.318 43.198 234.318 C 44.178 234.338 45.158 234.448 46.128 234.628 C 46.378 234.678 46.638 234.718 46.898 234.748 L 49.13 235.018 C 50.504 235.025 51.618 236.143 51.618 237.518 C 51.618 238.898 50.497 240.018 49.118 240.018 C 49 240.018 48.884 240.01 48.771 239.995 Z " fill="rgb(32,38,23)"/><g><path d=" M 76.687 246.494 L 53.484 275.603 L 58.265 281.088 L 65.999 281.51 L 78.515 274.76 L 85.827 259.15 L 85.405 251.135 L 79.78 244.807 L 76.687 246.494 Z " fill="rgb(255,255,255)" vector-effect="non-scaling-stroke" stroke-width="1" stroke="rgb(0,0,0)" stroke-linejoin="miter" stroke-linecap="square" stroke-miterlimit="3"/><g><path d=" M 55.792 279.881 C 63.78 283.978 74.348 277.826 80.917 271.256 C 87.822 264.352 88.042 254.881 85.417 249.131 C 83.605 245.194 83.046 244.2 81.968 244.728 M 43.968 287.728 C 51.03 279.541 55.589 273.122 61.968 264.728 C 66.718 258.478 73.827 248.103 79.968 245.728" fill-rule="evenodd" fill="none" vector-effect="non-scaling-stroke" stroke-width="5" stroke="rgb(32,38,23)" stroke-linejoin="miter" stroke-linecap="square" stroke-miterlimit="3"/><circle vector-effect="non-scaling-stroke" cx="42.36185720240988" cy="289.5995504574161" r="2.499999999999986" fill="rgb(32,38,23)"/></g><path d=" M 67.315 259.704 C 67.315 257.309 68.267 255.008 69.962 253.314 C 71.656 251.619 73.957 250.667 76.353 250.667 C 78.748 250.667 81.049 251.619 82.744 253.314 C 84.438 255.008 85.39 257.309 85.39 259.704 C 85.39 262.1 84.438 264.401 82.744 266.095 C 81.049 267.79 78.748 268.742 76.353 268.742 C 73.957 268.742 71.656 267.79 69.962 266.095 C 68.267 264.401 67.315 262.1 67.315 259.704 Z  M 72.545 259.704 C 72.545 258.69 72.943 257.728 73.654 257.016 C 74.376 256.295 75.338 255.897 76.353 255.897 C 77.357 255.897 78.33 256.295 79.041 257.016 C 79.752 257.728 80.16 258.69 80.16 259.704 C 80.16 260.709 79.752 261.681 79.041 262.393 C 78.33 263.114 77.357 263.512 76.353 263.512 C 75.338 263.512 74.376 263.114 73.654 262.393 C 72.943 261.681 72.545 260.709 72.545 259.704 Z " fill-rule="evenodd" fill="rgb(32,38,23)"/></g><g><path d=" M 142.687 177.994 L 119.484 207.103 L 124.265 212.588 L 131.999 213.01 L 144.515 206.26 L 151.827 190.65 L 151.405 182.635 L 145.78 176.307 L 142.687 177.994 Z " fill="rgb(255,255,255)" vector-effect="non-scaling-stroke" stroke-width="1" stroke="rgb(0,0,0)" stroke-linejoin="miter" stroke-linecap="square" stroke-miterlimit="3"/><g><path d=" M 100.136 217.472 C 113.331 223.828 137.574 183.037 142.968 177.314 M 120.968 210.728 C 128.037 217.179 137.484 212.736 142.968 207.478 C 148.663 201.662 151.562 194.447 151.718 187.228 C 151.968 182.916 144.843 173.541 142.968 176.728" fill-rule="evenodd" fill="none" vector-effect="non-scaling-stroke" stroke-width="5" stroke="rgb(32,38,23)" stroke-linejoin="miter" stroke-linecap="square" stroke-miterlimit="3"/><circle vector-effect="non-scaling-stroke" cx="97.91003428574308" cy="216.39902962408274" r="2.499999999999986" fill="rgb(32,38,23)"/></g><path d=" M 135.164 190.25 C 135.164 187.96 136.074 185.76 137.694 184.14 C 139.314 182.52 141.514 181.61 143.804 181.61 C 146.094 181.61 148.294 182.52 149.914 184.14 C 151.534 185.76 152.444 187.96 152.444 190.25 C 152.444 192.54 151.534 194.74 149.914 196.36 C 148.294 197.98 146.094 198.89 143.804 198.89 C 141.514 198.89 139.314 197.98 137.694 196.36 C 136.074 194.74 135.164 192.54 135.164 190.25 Z  M 140.164 190.25 C 140.164 189.28 140.544 188.36 141.224 187.68 C 141.914 186.99 142.834 186.61 143.804 186.61 C 144.764 186.61 145.694 186.99 146.374 187.68 C 147.054 188.36 147.444 189.28 147.444 190.25 C 147.444 191.21 147.054 192.14 146.374 192.82 C 145.694 193.51 144.764 193.89 143.804 193.89 C 142.834 193.89 141.914 193.51 141.224 192.82 C 140.544 192.14 140.164 191.21 140.164 190.25 Z " fill-rule="evenodd" fill="rgb(32,38,23)"/></g></g><g><path d=" M 575.409 385.525 C 505.732 421.369 385.761 407.729 356.258 349.098 C 304.889 247.011 397.736 199.451 472.438 177.925 C 549 155.862 576.104 177.487 615.557 231.404 C 654.456 284.566 645.087 349.681 575.409 385.525 Z " fill="rgb(147,91,58)" vector-effect="non-scaling-stroke" stroke-width="5" stroke="rgb(32,38,23)" stroke-linejoin="miter" stroke-linecap="square" stroke-miterlimit="3"/><path d=" M 492.491 397.897 C 422.023 405.901 364.093 353.631 363.315 346.776 C 362.536 339.921 418.432 370.572 488.9 362.569 C 559.368 354.566 604.689 339.921 605.468 346.776 C 606.246 353.631 562.959 389.894 492.491 397.897 Z " fill="rgb(102,64,42)"/><path d=" M 534.83 176.761 C 613.665 188.918 627.008 305.07 622.468 315.728 C 619.391 322.954 595.955 232.08 537.046 221.319 C 446.342 204.75 378.206 252.644 374.218 245.443 C 366.968 232.353 470.005 166.764 534.83 176.761 Z " fill="rgb(185,134,104)"/><path d=" M 522.241 210.367 C 503.491 206.668 440.007 220.14 439.673 222.392 C 439.339 224.644 500.741 214.793 518.241 218.293 C 550.555 224.756 582.822 252.909 583.241 251.293 C 584.336 247.067 546.477 215.149 522.241 210.367 Z " fill="rgb(255,255,255)"/></g><g><g><path d=" M 257.968 93.228 C 267.846 49.345 263.273 5.509 272.426 7.57 C 281.58 9.63 295.346 55.845 285.468 99.728 C 275.59 143.612 291.96 155.521 246.28 150.228 C 235.803 139.49 248.09 137.112 257.968 93.228 Z " fill="rgb(103,140,46)" vector-effect="non-scaling-stroke" stroke-width="5" stroke="rgb(32,38,23)" stroke-linejoin="miter" stroke-linecap="square" stroke-miterlimit="3"/><path d=" M 243.078 136.977 C 242.875 137.323 242.699 137.639 242.53 137.947 C 241.035 141.208 239.508 143.989 239.905 145.728 C 240.303 147.468 242.624 148.166 246.28 149.291 C 287.375 161.935 274.605 143.173 282.389 104.449 C 289.907 67.051 283.252 17.313 273.655 11.103 C 271.873 9.95 270.595 13.38 269.493 19.714 C 276.019 32.512 281.707 62.901 275.139 92.081 C 266.881 128.766 280.545 147.209 243.078 136.977 Z " fill-rule="evenodd" fill="rgb(84,113,41)"/></g><g><path d=" M 273.468 63.228 C 275.468 48.228 287.206 40.071 297.468 43.228 C 310.468 47.228 312.968 54.537 312.968 69.897 C 312.968 85.258 304.454 97.728 293.968 97.728 C 283.482 97.728 271.458 78.304 273.468 63.228 Z " fill="rgb(103,140,46)" vector-effect="non-scaling-stroke" stroke-width="5" stroke="rgb(32,38,23)" stroke-linejoin="miter" stroke-linecap="square" stroke-miterlimit="3"/><path d=" M 300.551 48.038 C 308.118 49.395 310.767 58.876 310.767 71.153 C 310.767 84.441 303.402 95.228 294.331 95.228 C 289.167 95.228 284.458 90.934 281.577 85.012 C 283.39 86.025 285.357 86.578 287.411 86.578 C 296.482 86.578 303.847 75.79 303.847 62.503 C 303.847 57.078 302.619 52.069 300.551 48.038 Z " fill-rule="evenodd" fill="rgb(84,113,41)"/></g></g><g/><path d=" M 233.777 119.008 C 237.826 103.523 248.983 111.808 264.468 115.857 C 279.953 119.907 293.939 118.196 289.89 133.681 C 285.841 149.166 269.982 158.45 254.497 154.401 C 239.012 150.352 229.728 134.493 233.777 119.008 Z " fill="rgb(252,240,248)" vector-effect="non-scaling-stroke" stroke-width="5" stroke="rgb(155,119,142)" stroke-linejoin="miter" stroke-linecap="square" stroke-miterlimit="3"/><path d=" M 235.28 125.697 C 242.452 131.322 249.156 135.149 258.421 137.572 C 267.686 139.995 277.57 139.143 284.882 139.424 C 281.155 148.728 268.124 155.103 254.53 151.822 C 240.937 148.541 234.234 135.275 235.28 125.697 Z " fill="rgb(171,200,201)"/><g><path d=" M 288.218 171.603 C 301.805 201.094 319.821 235.835 302.968 316.728 C 286.115 397.622 177.58 438.958 175.301 446.728 C 173.022 454.499 286.274 484.329 355.666 487.181 C 441.968 490.728 517.175 490.2 548.874 481.144 C 580.572 472.087 620.968 384.978 624.218 286.728 C 627.468 188.478 638.718 118.728 592.218 67.728 C 522.656 27.916 296.018 55.663 282.301 125.062 C 280.426 164.562 274.588 136.927 288.218 171.603 Z " fill="rgb(252,240,248)" vector-effect="non-scaling-stroke" stroke-width="5" stroke="rgb(155,119,142)" stroke-linejoin="miter" stroke-linecap="square" stroke-miterlimit="3"/><path d=" M 294.28 177.978 C 298.218 186.791 303.468 198.603 308.53 217.916 C 316.593 249.041 312.28 293.103 302.718 329.103 C 275.718 403.728 183.187 440.9 178.265 447.088 C 185.155 453.416 290.178 482.056 357.968 484.478 C 442.278 487.492 514.072 486.217 545.468 479.978 C 580.802 472.958 613.481 365.816 619.218 311.103 C 624.955 256.391 626.054 150.576 617.53 121.353 C 583.317 107.978 520.968 109.728 440.968 109.728 C 360.968 109.728 319.093 133.978 285.093 147.978 C 283.03 159.416 287.864 165.868 294.28 177.978 Z " fill="rgb(242,225,236)"/><path d=" M 598.468 405.478 C 580.468 444.728 569.218 473.478 545.468 480.092 C 514.072 486.214 442.278 487.464 357.968 484.508 C 290.178 482.131 176.552 451.98 178.476 446.385 C 196.124 435.803 216.843 426.728 258.808 391.963 Q 319.029 431.365 417.998 439.547 Q 516.968 447.728 598.468 405.478 Z " fill="rgb(171,200,201)"/><path d=" M 359.905 364.968 C 359.905 355.862 413.256 371.728 478.968 371.728 C 544.68 371.728 598.03 355.862 598.03 364.968 C 598.03 374.075 544.68 391.963 478.968 391.963 C 413.256 391.963 359.905 374.075 359.905 364.968 Z " fill="rgb(171,200,201)"/></g><g><path d=" M 484.932 287.631 C 484.178 287.541 483.411 287.494 482.632 287.494 L 436.921 287.494 L 453.702 267.356 C 456.638 263.833 456.162 258.589 452.639 255.653 L 452.639 255.653 C 449.116 252.717 443.872 253.194 440.936 256.717 L 415.288 287.494 L 400.674 287.494 C 393.854 274.725 380.394 266.028 364.918 266.028 C 342.562 266.028 324.411 284.179 324.411 306.536 C 324.411 328.892 342.562 347.043 364.918 347.043 C 380.394 347.043 393.854 338.346 400.674 325.577 L 415.288 325.577 L 440.936 356.354 C 443.872 359.877 449.116 360.354 452.639 357.418 L 452.639 357.418 C 456.162 354.482 456.638 349.239 453.702 345.716 L 436.921 325.577 L 482.632 325.577 C 484.022 325.577 485.378 325.428 486.662 325.086 C 487.089 325.323 487.556 325.504 488.046 325.643 L 544.007 341.501 C 548.419 342.752 553.016 340.184 554.267 335.772 L 554.267 335.772 C 555.517 331.36 552.95 326.763 548.538 325.512 L 500.875 312.005 C 501.395 310.273 501.674 308.436 501.674 306.536 L 501.674 306.536 C 501.674 304.323 501.295 302.197 500.6 300.221 L 548.506 288.88 C 552.969 287.824 555.734 283.343 554.678 278.881 L 554.678 278.881 C 553.621 274.418 549.141 271.652 544.678 272.709 L 488.078 286.107 C 486.891 286.388 485.823 286.912 484.932 287.631 Z " fill="rgb(193,74,94)" vector-effect="non-scaling-stroke" stroke-width="3" stroke="rgb(136,45,60)" stroke-linejoin="miter" stroke-linecap="square" stroke-miterlimit="3"/><path d=" M 384.306 323.152 C 378.311 329.148 379.806 339.425 364.918 339.659 C 346.639 339.946 331.794 324.816 331.794 306.534 C 331.794 288.252 346.637 273.547 364.918 273.409 C 379.806 273.297 378.311 283.92 384.306 289.916 C 391.599 293.098 397.831 287.256 398.043 306.534 C 398.255 325.812 390.625 320.752 384.306 323.152 Z " fill="rgb(235,235,235)"/><path d=" M 441.735 303.073 C 438.081 304.168 435.897 306.36 433.002 310.708 C 432.136 312.394 430.379 313.546 428.354 313.546 C 425.469 313.546 423.126 311.204 423.126 308.318 C 423.126 305.432 425.469 303.089 428.354 303.089 C 428.422 303.089 428.489 303.09 428.556 303.093 L 428.545 303.073 L 428.545 303.073 L 428.556 303.054 C 428.489 303.056 428.422 303.058 428.354 303.058 C 425.469 303.058 423.126 300.715 423.126 297.829 C 423.126 294.943 425.469 292.6 428.354 292.6 C 430.379 292.6 432.136 293.753 433.002 295.439 C 435.897 299.787 438.081 301.979 441.735 303.073 Z " fill="rgb(136,45,60)"/><path d=" M 363.187 333.192 C 357.646 333.192 353.148 328.693 353.148 323.152 C 353.148 317.611 357.646 313.113 363.187 313.113 C 368.728 313.113 373.227 317.611 373.227 323.152 C 373.227 328.693 368.728 333.192 363.187 333.192 Z " fill="rgb(0,0,0)"/><path d=" M 363.187 299.955 C 357.646 299.955 353.148 295.457 353.148 289.916 C 353.148 284.375 357.646 279.876 363.187 279.876 C 368.728 279.876 373.227 284.375 373.227 289.916 C 373.227 295.457 368.728 299.955 363.187 299.955 Z " fill="rgb(0,0,0)"/><path d=" M 465.667 320.443 C 457.991 320.443 451.76 314.211 451.76 306.536 C 451.76 298.86 457.991 292.628 465.667 292.628 C 473.343 292.628 479.575 298.86 479.575 306.536 C 479.575 314.211 473.343 320.443 465.667 320.443 Z " fill="rgb(242,182,193)"/><path d=" M 455.878 306.536 Q 465.161 311.231 461.418 303.766 Q 459.747 288.143 465.667 298.226 Q 471.588 308.31 465.667 314.845 L 458.648 312.075 Q 454.082 308.05 458.648 312.075 C 463.214 316.1 466.503 321.466 469.727 317.615 C 472.951 313.763 466.589 298.443 472.497 303.766 C 478.404 309.089 477.776 314.477 475.266 312.075 C 472.756 309.673 461.266 312.356 464.187 306.536 C 467.109 300.715 468.147 298.162 472.497 300.996 C 476.846 303.831 472.405 291.562 465.667 295.457 C 458.929 299.352 446.206 300.196 455.878 303.766 C 465.551 307.336 464.88 307.574 461.418 309.305 C 457.956 311.036 456.895 321.466 461.418 317.615 C 465.94 313.763 482.342 304.675 478.036 303.766 C 473.73 302.857 477.885 314.001 472.497 309.305 C 467.109 304.61 467.303 297.772 464.187 300.996" fill="rgb(242,182,193)" vector-effect="non-scaling-stroke" stroke-width="3" stroke="rgb(136,45,60)" stroke-linejoin="miter" stroke-linecap="square" stroke-miterlimit="3"/><path d="M 394.228 306.536 L 394.228 306.536 C 394.228 305.007 395.469 303.766 396.997 303.766 L 412.469 303.766 C 413.998 303.766 415.239 305.007 415.239 306.536 L 415.239 306.536 C 415.239 308.064 413.998 309.305 412.469 309.305 L 396.997 309.305 C 395.469 309.305 394.228 308.064 394.228 306.536 Z" style="stroke:none;fill:#EBEBEB;stroke-miterlimit:10;"/><path d="M 447 350.806 L 447 350.806 C 447.588 350.318 447.668 349.444 447.179 348.856 L 427.151 324.78 C 426.662 324.192 425.788 324.112 425.2 324.601 L 425.2 324.601 C 424.613 325.09 424.533 325.964 425.021 326.551 L 445.05 350.627 C 445.538 351.215 446.412 351.295 447 350.806 Z" style="stroke:none;fill:#EBEBEB;stroke-miterlimit:10;"/><path d="M 545.987 333.163 L 545.987 333.163 C 546.198 332.428 545.669 331.631 544.806 331.383 L 502.746 319.307 C 501.883 319.059 501.011 319.454 500.8 320.189 L 500.8 320.189 C 500.589 320.924 501.119 321.721 501.981 321.969 L 544.042 334.045 C 544.905 334.293 545.776 333.898 545.987 333.163 Z" style="stroke:none;fill:#EBEBEB;stroke-miterlimit:10;"/><path d="M 546.037 280.993 L 546.037 280.993 C 546.218 281.736 545.657 282.511 544.785 282.724 L 502.269 293.084 C 501.397 293.296 500.542 292.866 500.361 292.123 L 500.361 292.123 C 500.18 291.381 500.741 290.605 501.613 290.393 L 544.129 280.033 C 545.001 279.82 545.856 280.251 546.037 280.993 Z" style="stroke:none;fill:#EBEBEB;stroke-miterlimit:10;"/><path d="M 447 262.628 L 447 262.628 C 447.588 263.117 447.668 263.991 447.179 264.578 L 427.151 288.655 C 426.662 289.242 425.788 289.323 425.2 288.834 L 425.2 288.834 C 424.613 288.345 424.533 287.471 425.021 286.883 L 445.05 262.807 C 445.538 262.22 446.412 262.139 447 262.628 Z" style="stroke:none;fill:#EBEBEB;stroke-miterlimit:10;"/></g><path d=" M 97.968 140.728 C 109.593 125.666 63.076 123.075 46.397 133.824 C 29.718 144.572 24.093 163.166 33.114 183.427 C 64.218 176.478 86.343 155.791 97.968 140.728 Z " fill="rgb(136,45,60)" vector-effect="non-scaling-stroke" stroke-width="5" stroke="rgb(0,0,0)" stroke-linejoin="miter" stroke-linecap="square" stroke-miterlimit="3"/><path d=" M 36.605 139.816 C 35.26 137.729 36.364 134.618 39.071 132.874 C 41.777 131.13 45.066 131.409 46.412 133.496 C 47.757 135.584 46.652 138.695 43.946 140.439 C 41.24 142.183 37.95 141.904 36.605 139.816 Z " fill="rgb(136,45,60)" vector-effect="non-scaling-stroke" stroke-width="5" stroke="rgb(0,0,0)" stroke-linejoin="miter" stroke-linecap="square" stroke-miterlimit="3"/><path d=" M 61.625 163.621 C 53.036 163.32 66.434 143.688 82.077 131.728 C 97.72 119.769 106.08 116.408 109.968 120.728 C 112.218 123.228 110.468 123.978 99.968 129.728 C 81.429 139.881 78.968 164.228 61.625 163.621 Z " fill="rgb(242,182,193)" vector-effect="non-scaling-stroke" stroke-width="5" stroke="rgb(0,0,0)" stroke-linejoin="miter" stroke-linecap="square" stroke-miterlimit="3"/><circle vector-effect="non-scaling-stroke" cx="42.46795095240995" cy="135.728456707416" r="1.5" fill="rgb(242,182,193)"/><path d=" M 44.093 143.197 C 45.708 142.6 47.742 140.695 48.79 138.506 C 49.493 137.036 49.575 135.727 49.382 134.988 C 57.447 131.029 67.744 129.355 80.214 129.908 C 67.909 141.053 62.484 146.9 59.343 152.994 C 58.957 153.727 46.093 145.103 44.093 143.197 Z " fill="rgb(242,182,193)"/></g></svg>